<?xml version="1.0" standalone="no"?>
<!DOCTYPE svg PUBLIC "-//W3C//DTD SVG 20010904//EN"
 "http://www.w3.org/TR/2001/REC-SVG-20010904/DTD/svg10.dtd">
<svg version="1.0" xmlns="http://www.w3.org/2000/svg"
 width="1772.000000pt" height="1772.000000pt" viewBox="0 0 1772.000000 1772.000000"
 preserveAspectRatio="xMidYMid meet">
<metadata>
Created by potrace 1.11, written by Peter Selinger 2001-2013
</metadata>
<g transform="translate(0.000000,1772.000000) scale(0.100000,-0.100000)"
fill="#000000" stroke="none">
<path d="M7139 15808 c-1 -7 0 -17 1 -23 2 -5 4 -30 5 -55 2 -45 12 -142 20
-190 2 -14 7 -47 10 -75 13 -97 14 -110 20 -145 4 -19 8 -48 11 -65 2 -16 6
-41 9 -55 6 -32 15 -89 19 -115 2 -11 4 -20 5 -20 3 0 10 -31 15 -67 3 -15 7
-35 10 -45 6 -22 16 -69 22 -106 2 -16 6 -33 10 -38 5 -8 9 -26 18 -74 1 -5 5
-16 10 -23 4 -7 6 -16 3 -18 -3 -3 1 -21 9 -40 8 -19 14 -36 14 -39 0 -3 1 -7
1 -10 1 -3 3 -9 4 -15 1 -5 3 -11 5 -12 1 -3 6 -21 13 -50 1 -7 6 -18 10 -25
4 -6 8 -23 9 -37 1 -14 5 -26 8 -26 3 0 7 -12 8 -26 1 -14 5 -31 9 -37 4 -7 8
-15 9 -19 1 -5 2 -9 4 -10 1 -2 3 -10 5 -18 2 -8 9 -28 16 -45 7 -16 11 -36
10 -42 -1 -7 3 -13 9 -13 5 0 9 -3 9 -7 -1 -5 -1 -10 1 -13 1 -3 4 -16 6 -30
2 -13 10 -28 17 -32 6 -4 8 -8 3 -8 -5 0 -3 -7 4 -15 7 -8 9 -15 5 -15 -4 0
-2 -6 4 -13 6 -8 8 -17 4 -20 -3 -4 -1 -7 6 -7 7 0 11 -6 8 -13 -3 -7 1 -21 9
-31 7 -11 11 -23 8 -27 -3 -5 0 -9 6 -9 6 0 8 -4 5 -10 -3 -5 -1 -10 5 -10 7
0 10 -7 6 -15 -3 -8 -1 -15 5 -15 6 0 8 -4 4 -9 -3 -5 -1 -12 5 -16 6 -4 8
-11 5 -16 -4 -5 -1 -9 4 -9 6 0 11 -9 11 -20 0 -11 5 -20 10 -20 6 0 10 -7 10
-15 0 -9 8 -30 17 -48 9 -18 16 -35 15 -39 -1 -5 2 -8 8 -8 6 0 9 -3 8 -7 -1
-5 3 -18 10 -29 6 -12 8 -24 5 -28 -3 -3 -1 -6 5 -6 7 0 12 -9 12 -20 0 -11 5
-20 11 -20 5 0 7 -4 4 -10 -3 -5 -1 -10 5 -10 6 0 8 -4 5 -10 -3 -5 -1 -10 6
-10 7 0 10 -3 6 -6 -3 -4 1 -13 9 -21 8 -8 12 -19 9 -24 -4 -5 -1 -9 5 -9 6 0
8 -4 5 -10 -3 -5 -1 -10 5 -10 6 0 8 -4 5 -10 -3 -5 -1 -10 5 -10 6 0 8 -4 5
-10 -3 -5 -1 -10 5 -10 6 0 9 -4 6 -9 -4 -5 -1 -11 4 -13 6 -2 12 -10 13 -19
2 -8 13 -30 27 -49 13 -18 17 -30 9 -26 -7 4 -6 1 3 -7 10 -8 15 -17 11 -20
-3 -4 -1 -7 6 -7 7 0 9 -4 6 -10 -3 -5 -1 -10 5 -10 6 0 8 -5 5 -10 -3 -6 1
-13 9 -16 9 -3 13 -10 10 -15 -3 -5 0 -9 5 -9 6 0 11 -9 11 -20 0 -11 5 -20
10 -20 6 0 10 -7 10 -15 0 -8 5 -15 11 -15 5 0 8 -4 5 -8 -3 -5 3 -18 14 -29
10 -12 16 -24 13 -27 -4 -3 -1 -6 6 -6 7 0 10 -4 7 -9 -3 -5 1 -12 10 -15 8
-3 13 -10 10 -14 -3 -5 3 -18 14 -29 10 -12 16 -24 13 -27 -4 -3 -2 -6 4 -6 6
0 16 -13 23 -30 7 -16 17 -30 23 -30 6 0 7 -3 4 -7 -4 -3 0 -11 8 -17 7 -6 15
-18 17 -26 2 -8 12 -23 22 -32 10 -10 15 -18 11 -18 -5 0 0 -7 11 -16 10 -8
12 -13 4 -9 -8 4 -4 -3 10 -15 14 -12 18 -19 10 -15 -8 4 -4 -3 10 -15 14 -12
18 -19 10 -15 -8 4 -6 -1 5 -10 11 -9 20 -20 20 -26 0 -5 7 -14 15 -19 8 -5
11 -10 7 -10 -5 0 -2 -6 5 -14 7 -7 20 -24 28 -36 14 -21 36 -49 60 -77 6 -7
8 -13 4 -13 -3 0 4 -9 17 -21 13 -11 17 -17 9 -14 -8 4 -2 -4 14 -19 16 -14
25 -26 21 -26 -4 0 2 -8 13 -19 12 -10 22 -23 22 -29 0 -6 8 -16 18 -21 9 -6
14 -11 10 -11 -5 0 0 -9 10 -19 48 -52 71 -81 65 -81 -3 0 6 -11 21 -25 15
-14 23 -25 19 -25 -4 0 8 -14 27 -31 19 -17 28 -28 20 -24 -8 4 2 -8 23 -26
20 -19 37 -38 37 -43 0 -5 13 -22 30 -37 16 -16 27 -29 25 -29 -6 0 36 -46
113 -124 28 -29 52 -56 52 -60 0 -4 24 -31 54 -61 30 -29 52 -56 48 -59 -3 -3
0 -6 7 -6 13 0 42 -25 37 -31 -1 -2 63 -69 143 -149 80 -79 139 -136 131 -125
-8 11 24 -20 73 -68 48 -48 92 -87 97 -87 6 0 10 -7 10 -15 0 -8 4 -14 9 -12
5 1 25 -15 45 -37 20 -21 36 -35 36 -31 0 4 20 -14 43 -39 24 -25 48 -46 54
-46 5 0 27 -19 48 -42 21 -24 34 -36 30 -28 -5 8 11 -5 35 -30 24 -25 40 -38
36 -30 -4 8 8 -2 28 -24 20 -21 36 -35 36 -32 0 4 6 1 14 -6 8 -7 12 -16 9
-20 -2 -5 3 -8 11 -8 9 0 16 -4 16 -10 0 -5 6 -9 13 -7 6 1 11 -4 10 -10 -2
-7 3 -13 11 -13 8 0 31 -16 50 -35 20 -19 40 -35 43 -35 4 0 20 -15 36 -32 16
-18 26 -26 22 -18 -4 8 7 -1 25 -20 18 -19 29 -28 26 -20 -4 8 1 5 10 -7 9
-13 23 -23 31 -23 8 0 12 -4 9 -9 -3 -4 6 -13 19 -19 14 -7 25 -16 25 -22 0
-6 5 -8 10 -5 6 3 13 -1 16 -9 3 -9 12 -16 20 -16 8 0 14 -5 14 -10 0 -6 11
-15 25 -22 13 -6 22 -15 19 -19 -3 -5 7 -11 21 -15 13 -3 22 -10 19 -15 -3 -5
-1 -9 5 -9 6 0 20 -10 32 -22 12 -13 18 -16 14 -8 -4 8 4 4 18 -10 39 -39 65
-59 70 -53 3 2 11 -5 17 -17 6 -12 14 -19 17 -16 4 3 20 -9 36 -27 17 -17 26
-25 22 -17 -6 11 -3 10 11 -2 35 -32 72 -63 100 -83 16 -11 36 -28 46 -37 10
-10 18 -15 18 -10 0 4 7 -2 15 -12 8 -11 15 -16 15 -11 0 4 11 -4 25 -19 14
-15 25 -24 25 -20 0 3 9 -4 21 -17 11 -13 17 -17 13 -9 -4 9 1 7 14 -5 33 -32
51 -45 58 -45 3 1 14 -8 24 -20 10 -12 22 -21 26 -20 5 1 11 -7 15 -17 4 -10
8 -14 8 -9 1 6 8 1 17 -10 8 -10 13 -12 9 -4 -4 10 -2 9 8 -2 8 -10 19 -18 25
-18 6 0 18 -10 26 -22 9 -12 16 -19 16 -14 0 5 8 -1 19 -12 10 -12 21 -19 25
-15 3 3 6 1 6 -5 0 -6 9 -14 20 -17 11 -3 20 -14 20 -22 0 -9 3 -14 6 -10 4 3
12 1 19 -6 7 -7 23 -19 35 -27 13 -8 37 -27 54 -42 17 -16 34 -28 38 -28 5 0
16 -8 26 -17 11 -10 32 -27 47 -38 16 -11 37 -29 48 -40 11 -11 17 -13 12 -5
-4 8 4 3 17 -12 14 -16 30 -28 36 -28 6 0 16 -8 21 -17 6 -10 11 -14 11 -9 0
5 8 0 18 -11 9 -11 33 -30 52 -42 19 -11 31 -21 26 -21 -6 0 -1 -6 9 -14 11
-8 23 -12 27 -10 4 3 12 -5 18 -16 6 -11 18 -20 26 -20 8 0 12 -4 9 -10 -3 -5
-1 -10 4 -10 10 0 36 -19 67 -48 7 -7 16 -13 19 -12 3 0 6 -3 6 -7 1 -5 14
-13 30 -20 15 -6 33 -21 39 -32 6 -12 15 -19 21 -16 5 4 9 -1 9 -10 0 -9 5
-13 10 -10 6 3 13 -1 16 -9 3 -9 9 -14 13 -11 4 2 14 -5 21 -16 8 -10 19 -19
24 -19 6 0 23 -15 39 -32 16 -18 26 -26 22 -18 -4 8 8 -1 28 -20 47 -46 70
-65 79 -65 4 0 16 -10 28 -22 11 -13 25 -23 30 -23 6 0 9 -5 8 -12 -2 -7 3
-12 10 -13 7 0 17 -7 22 -15 5 -8 13 -15 17 -15 8 -1 53 -38 97 -80 12 -11 24
-20 28 -20 4 0 21 -14 37 -32 16 -17 32 -29 35 -26 3 4 6 -1 6 -11 0 -9 8 -20
17 -23 18 -7 34 -20 98 -80 19 -18 38 -33 42 -33 4 0 24 -17 44 -38 20 -20 48
-46 62 -57 13 -11 23 -23 20 -27 -2 -5 2 -8 9 -8 7 0 23 -12 35 -27 13 -14 23
-23 23 -19 0 4 7 1 15 -8 8 -8 15 -19 15 -25 0 -5 5 -13 12 -17 7 -5 8 -3 3 7
-5 8 11 -6 36 -31 25 -25 57 -54 71 -64 15 -11 25 -23 22 -28 -3 -4 -1 -8 5
-8 6 0 104 -93 218 -207 114 -114 202 -200 196 -192 -7 9 -10 19 -6 22 3 4 1
7 -6 7 -7 0 -11 6 -8 13 2 6 -5 24 -15 40 -11 15 -16 27 -12 27 3 0 1 6 -5 13
-6 8 -8 17 -4 20 3 4 1 7 -5 7 -7 0 -11 3 -10 8 1 4 -5 21 -12 37 -7 17 -13
33 -12 38 1 4 -3 7 -9 7 -5 0 -7 5 -4 10 3 6 1 10 -6 10 -7 0 -9 3 -6 6 3 4 1
16 -5 28 -7 11 -13 23 -13 26 0 3 -8 19 -18 36 -9 17 -13 34 -10 38 4 3 2 6
-4 6 -5 0 -16 18 -23 40 -7 22 -18 40 -23 40 -6 0 -8 3 -4 6 3 4 -1 13 -9 21
-8 8 -12 19 -9 24 4 5 1 9 -5 9 -7 0 -10 6 -7 14 3 7 -3 20 -14 29 -10 9 -19
26 -19 37 0 11 -5 20 -11 20 -5 0 -8 4 -4 9 3 5 -1 15 -8 23 -15 15 -31 49
-29 61 1 4 -3 7 -10 7 -6 0 -9 3 -5 6 3 4 -1 13 -9 21 -8 8 -12 19 -9 24 4 5
2 9 -3 9 -9 0 -37 50 -34 63 1 4 -3 7 -9 7 -5 0 -8 4 -5 8 3 5 -3 18 -14 29
-10 12 -16 24 -13 27 4 3 1 6 -6 6 -7 0 -9 5 -6 10 3 6 1 10 -5 10 -6 0 -8 5
-5 10 3 6 1 10 -5 10 -6 0 -8 5 -5 10 3 6 1 10 -4 10 -6 0 -11 7 -11 15 0 8
-4 15 -9 15 -5 0 -12 11 -15 25 -4 14 -11 25 -16 25 -6 0 -10 9 -10 20 0 11
-4 20 -10 20 -5 0 -10 7 -10 15 0 8 -3 15 -8 15 -4 0 -13 9 -20 21 -11 17 -11
20 0 14 7 -3 4 1 -6 9 -11 9 -17 16 -13 16 4 0 0 8 -8 18 -8 9 -14 20 -13 24
2 4 -6 14 -17 23 -11 9 -13 13 -5 9 9 -4 7 2 -6 17 -12 13 -24 32 -27 42 -4 9
-11 17 -17 17 -5 0 -10 9 -10 19 0 10 -7 21 -15 25 -8 3 -15 12 -15 20 0 8 -8
22 -17 32 -10 10 -18 20 -18 23 0 3 -10 20 -23 38 -12 17 -22 34 -22 38 0 4
-8 14 -17 22 -11 9 -12 12 -3 7 9 -4 7 1 -5 14 -36 37 -44 50 -38 56 4 3 1 6
-5 6 -7 0 -12 4 -12 10 0 9 -19 36 -48 66 -7 8 -11 14 -8 14 3 0 -3 9 -14 20
-12 12 -19 24 -16 29 3 4 -4 14 -15 21 -10 8 -19 20 -19 27 0 7 -3 13 -8 13
-4 0 -18 18 -32 40 -14 22 -29 40 -34 40 -5 0 -6 3 -3 6 4 4 -3 15 -15 25 -11
11 -18 19 -14 19 4 0 1 6 -6 14 -7 7 -20 24 -28 36 -8 13 -24 31 -34 41 -11
11 -17 19 -13 19 6 0 1 8 -45 62 -10 11 -20 29 -23 39 -4 11 -13 19 -21 19 -8
0 -14 5 -14 11 0 7 -8 18 -17 26 -12 9 -12 12 -3 8 8 -4 2 4 -14 19 -16 14
-25 26 -21 26 4 0 -5 12 -21 26 -16 15 -22 23 -14 19 8 -4 0 6 -18 24 -18 17
-30 31 -26 31 4 0 -5 10 -19 23 -15 12 -27 26 -27 31 0 5 -10 17 -22 27 -11
11 -17 19 -13 19 5 0 -5 12 -23 26 -17 15 -29 30 -26 35 3 5 1 9 -5 9 -5 0
-13 9 -16 20 -3 11 -13 20 -21 20 -8 0 -14 4 -14 10 0 5 -12 21 -27 36 -16 15
-19 21 -8 14 11 -8 0 5 -23 28 -24 23 -41 42 -38 42 5 0 -36 47 -97 111 -15
16 -25 29 -21 29 3 0 -18 23 -47 51 -30 29 -45 46 -34 38 11 -7 -8 16 -42 51
-103 107 -113 119 -113 130 0 6 -4 8 -10 5 -5 -3 -10 1 -10 10 0 9 -5 13 -10
10 -5 -3 -10 -2 -10 3 0 5 -27 38 -60 72 -33 34 -60 66 -60 70 0 4 -10 10 -22
13 -12 4 -19 9 -16 12 4 4 -23 36 -58 71 -36 35 -61 64 -57 65 4 0 -2 4 -15
10 -13 5 -20 13 -17 19 3 5 0 10 -8 10 -15 0 -77 66 -77 82 0 5 -4 7 -8 4 -10
-6 -102 88 -102 105 0 7 -3 10 -6 6 -8 -7 -34 17 -34 32 0 5 -5 13 -12 17 -7
5 -8 3 -3 -7 5 -8 -1 -6 -13 5 -12 10 -19 23 -15 29 3 6 1 7 -5 3 -7 -4 -12 0
-12 10 0 10 -3 14 -7 11 -9 -9 -43 22 -43 40 0 7 -4 12 -8 10 -5 -1 -44 34
-87 78 -44 44 -75 73 -70 65 4 -8 -26 19 -67 60 -41 41 -83 81 -94 88 -10 7
-13 10 -5 6 9 -5 12 -3 7 4 -4 7 -12 12 -19 12 -6 0 -33 23 -59 50 -26 28 -52
50 -58 50 -6 0 -8 5 -5 10 3 6 1 10 -5 10 -6 0 -41 29 -76 65 -36 36 -69 65
-74 65 -6 0 -10 6 -10 14 0 8 -5 18 -12 22 -7 5 -8 3 -3 -7 9 -13 -47 39 -211
199 -41 39 -80 72 -86 72 -6 0 -8 3 -5 7 4 3 -3 11 -16 18 -12 6 -21 17 -20
23 2 7 -4 12 -13 12 -8 0 -12 5 -9 10 3 6 1 10 -5 10 -7 0 -37 26 -68 58 -30
31 -52 51 -47 43 5 -10 4 -12 -3 -7 -7 4 -12 14 -12 22 0 8 -4 13 -9 11 -4 -1
-50 41 -101 93 -51 52 -89 88 -85 80 4 -8 -2 -5 -14 7 -11 12 -21 27 -21 32 0
5 -5 13 -12 17 -7 5 -8 3 -3 -7 5 -8 -8 3 -28 24 -20 20 -37 43 -37 49 0 6 -3
9 -6 5 -8 -7 -34 17 -34 32 0 5 -5 13 -12 17 -7 5 -8 3 -3 -7 5 -8 -1 -6 -13
5 -12 10 -19 23 -16 27 3 5 1 9 -4 9 -14 0 -238 222 -234 232 1 4 -2 8 -8 8
-13 0 -120 107 -120 120 0 6 -6 9 -12 8 -7 -2 -12 3 -10 10 1 8 -2 11 -8 7 -5
-3 -14 5 -19 18 -6 14 -16 29 -23 33 -10 6 -9 3 1 -12 8 -10 3 -7 -12 8 -15
15 -27 30 -27 34 0 3 -29 34 -64 69 -36 34 -62 65 -59 69 4 3 1 6 -5 6 -6 0
-23 11 -38 25 -15 14 -24 25 -20 25 4 0 -17 24 -48 54 -31 29 -56 59 -56 65 0
7 -4 9 -10 6 -5 -3 -10 0 -10 7 0 6 -21 32 -47 57 -27 24 -41 40 -33 36 8 -4
0 5 -17 22 -18 16 -33 35 -33 41 0 6 -5 14 -12 18 -7 5 -8 3 -3 -7 8 -12 6
-12 -8 0 -10 8 -16 16 -13 18 2 2 -10 20 -27 39 -18 19 -48 52 -67 73 -19 21
-46 53 -60 71 -14 18 -35 43 -47 56 -12 12 -19 25 -16 28 4 3 -2 6 -12 6 -10
0 -15 3 -12 7 4 3 -5 16 -18 29 -14 13 -25 26 -25 29 0 3 -11 18 -25 33 -14
15 -35 38 -48 51 -12 13 -15 20 -7 16 8 -4 5 2 -7 14 -13 12 -23 26 -23 32 0
6 -4 7 -10 4 -5 -3 -10 0 -10 8 0 8 -7 17 -15 21 -8 3 -15 11 -15 18 0 8 -9
20 -19 28 -11 7 -18 16 -16 20 2 3 -7 14 -21 24 -13 11 -24 25 -24 32 0 7 -8
18 -17 23 -10 6 -14 11 -9 11 6 0 1 8 -10 19 -10 10 -28 31 -38 45 -11 15 -28
37 -38 48 -10 11 -15 25 -12 29 3 5 -2 9 -11 9 -9 0 -14 4 -10 9 3 6 -3 14
-12 20 -10 6 -14 11 -9 11 4 0 -2 9 -15 21 -13 11 -17 18 -9 14 8 -4 4 3 -10
15 -14 12 -18 19 -10 15 8 -3 2 6 -15 20 -16 15 -23 24 -15 20 8 -5 3 5 -12
22 -16 16 -28 34 -28 41 0 7 -4 12 -10 12 -5 0 -10 6 -10 13 0 7 -9 18 -20 25
-11 7 -20 19 -20 27 0 8 -5 15 -11 15 -5 0 -7 5 -4 10 3 6 -1 13 -9 16 -9 3
-16 13 -16 20 0 8 -9 24 -20 36 -11 12 -20 27 -20 34 0 6 -7 14 -15 18 -8 3
-15 12 -15 21 0 8 -5 15 -11 15 -5 0 -7 5 -4 10 3 6 1 10 -6 10 -7 0 -10 3 -6
6 3 4 1 12 -6 20 -30 33 -35 42 -30 48 4 3 1 6 -6 6 -7 0 -9 5 -6 10 3 6 2 10
-3 10 -5 0 -15 14 -22 30 -7 17 -15 30 -19 30 -3 0 -12 15 -20 33 -8 17 -23
43 -35 56 -12 13 -14 20 -6 16 13 -8 13 -7 1 8 -16 20 -21 21 -22 5z"/>
<path d="M6695 15200 c-4 -6 -11 -8 -16 -5 -5 4 -9 2 -9 -3 0 -6 -11 -13 -25
-16 -14 -4 -25 -11 -25 -17 0 -6 -4 -7 -10 -4 -5 3 -10 1 -10 -5 0 -6 -4 -8
-10 -5 -5 3 -10 1 -10 -5 0 -6 -4 -8 -10 -5 -5 3 -10 1 -10 -6 0 -7 -3 -9 -7
-6 -3 4 -12 -1 -20 -11 -10 -11 -12 -12 -8 -2 5 12 4 12 -7 -1 -7 -9 -23 -19
-36 -23 -12 -4 -22 -12 -22 -17 0 -6 -4 -7 -10 -4 -5 3 -10 1 -10 -5 0 -6 -4
-8 -10 -5 -5 3 -10 1 -10 -5 0 -6 -13 -16 -30 -21 -16 -6 -30 -15 -30 -20 0
-5 -3 -8 -7 -8 -18 3 -34 -2 -29 -9 2 -4 -13 -16 -35 -26 -21 -11 -39 -23 -39
-28 0 -4 -7 -8 -15 -8 -8 0 -15 -5 -15 -12 0 -6 -3 -9 -6 -5 -3 3 -18 -5 -32
-19 -15 -13 -30 -24 -35 -24 -9 0 -30 -17 -54 -42 -9 -9 -20 -15 -25 -12 -4 3
-8 0 -8 -5 0 -6 -7 -11 -16 -11 -8 0 -12 -4 -9 -10 3 -5 1 -10 -6 -10 -6 0
-18 -8 -26 -17 -9 -12 -12 -12 -8 -3 4 8 -4 2 -19 -14 -14 -16 -26 -26 -26
-21 0 4 -13 -7 -29 -24 -17 -18 -31 -31 -33 -29 -4 3 -34 -23 -87 -74 -15 -16
-31 -28 -35 -28 -7 0 -59 -49 -221 -209 -106 -104 -207 -211 -200 -211 3 0 0
-6 -7 -14 -7 -8 -16 -12 -20 -9 -5 2 -8 -3 -8 -11 0 -8 -8 -20 -17 -25 -10 -6
-14 -11 -10 -11 5 0 -8 -15 -27 -34 -20 -18 -33 -36 -30 -39 3 -3 -4 -10 -15
-17 -12 -6 -21 -17 -21 -24 0 -8 -7 -16 -15 -20 -8 -3 -15 -13 -15 -21 0 -9
-4 -13 -10 -10 -5 3 -10 1 -10 -5 0 -6 -6 -18 -12 -25 -30 -33 -38 -45 -38
-55 0 -5 -4 -10 -10 -10 -5 0 -10 -6 -10 -13 0 -7 -9 -18 -21 -25 -12 -7 -19
-16 -16 -19 3 -2 -4 -16 -16 -30 -12 -13 -21 -27 -19 -29 1 -2 -10 -17 -24
-33 -14 -16 -24 -32 -22 -34 1 -3 -8 -17 -21 -31 -14 -14 -20 -26 -15 -26 5 0
1 -5 -9 -11 -9 -6 -15 -14 -12 -19 3 -4 -2 -11 -11 -14 -8 -3 -12 -10 -9 -16
3 -5 1 -10 -6 -10 -7 0 -10 -3 -6 -6 3 -3 -3 -15 -14 -27 -10 -11 -19 -27 -19
-34 0 -7 -4 -13 -9 -13 -5 0 -12 -11 -15 -25 -4 -14 -11 -25 -17 -25 -6 0 -7
-4 -4 -10 3 -5 1 -10 -5 -10 -6 0 -8 -4 -5 -10 3 -5 2 -10 -4 -10 -6 0 -15
-10 -22 -21 -9 -17 -8 -20 3 -13 8 4 7 0 -3 -12 -9 -10 -20 -29 -23 -41 -4
-13 -12 -23 -17 -23 -6 0 -7 -4 -4 -10 3 -5 3 -10 -2 -10 -9 0 -33 -48 -33
-67 0 -7 -5 -13 -11 -13 -5 0 -7 -4 -4 -10 3 -5 1 -10 -4 -10 -6 0 -11 -3 -10
-7 2 -16 -14 -53 -22 -53 -5 0 -9 -7 -9 -15 0 -8 -9 -30 -19 -49 -11 -19 -17
-37 -14 -40 4 -3 1 -6 -6 -6 -7 0 -9 -4 -6 -10 3 -5 1 -10 -5 -10 -6 0 -9 -4
-5 -9 3 -5 1 -12 -5 -16 -6 -4 -8 -11 -5 -16 4 -5 1 -9 -4 -9 -6 0 -11 -8 -11
-18 0 -10 -3 -22 -7 -26 -5 -4 -9 -12 -9 -17 -1 -5 -3 -11 -4 -14 -1 -3 -3 -8
-4 -12 -1 -5 -7 -17 -13 -28 -6 -11 -12 -23 -12 -27 -1 -4 -7 -22 -14 -40 -6
-18 -10 -36 -9 -40 1 -5 -3 -8 -9 -8 -5 0 -8 -4 -5 -8 3 -5 -1 -20 -9 -35 -8
-15 -11 -27 -8 -27 3 0 0 -7 -7 -15 -7 -8 -9 -15 -5 -15 4 0 2 -6 -4 -13 -6
-8 -8 -17 -4 -20 3 -4 1 -7 -5 -7 -6 0 -9 -9 -7 -20 2 -11 -1 -20 -6 -20 -6 0
-7 -5 -4 -10 4 -6 2 -16 -3 -23 -11 -15 -26 -67 -23 -84 1 -7 -3 -13 -8 -13
-5 0 -10 -8 -10 -17 0 -17 -7 -55 -11 -60 -3 -3 -3 -3 -15 -58 -4 -22 -10 -44
-11 -50 -2 -5 -6 -23 -9 -40 -4 -16 -8 -37 -10 -45 -2 -8 -4 -15 -5 -15 -1 0
-3 -11 -5 -25 -2 -14 -6 -35 -8 -46 -3 -12 -8 -37 -11 -55 -3 -19 -8 -45 -11
-59 -4 -14 -8 -41 -10 -60 -2 -19 -7 -55 -10 -80 -7 -43 -11 -80 -20 -165 -23
-226 -24 -596 -1 -815 14 -135 21 -192 32 -250 2 -14 7 -45 10 -70 3 -24 7
-47 9 -50 2 -3 6 -26 10 -50 8 -51 13 -75 15 -75 2 0 9 -31 14 -60 2 -11 6
-27 10 -35 3 -8 8 -28 11 -45 8 -38 13 -60 15 -60 3 0 11 -41 11 -57 0 -10 5
-18 11 -18 5 0 8 -6 5 -14 -3 -8 -3 -17 1 -20 6 -7 12 -30 14 -53 1 -7 5 -13
10 -13 4 0 8 -10 8 -23 0 -13 5 -28 12 -35 7 -7 8 -12 4 -12 -5 0 -3 -7 4 -15
7 -8 9 -15 5 -15 -4 0 -2 -7 5 -15 7 -8 9 -15 5 -15 -4 0 -2 -7 5 -15 7 -8 9
-15 5 -15 -4 0 -2 -6 4 -13 6 -8 8 -17 4 -20 -3 -4 -1 -7 5 -7 7 0 11 -3 10
-7 -1 -5 4 -24 11 -43 8 -19 15 -38 16 -42 1 -5 4 -11 5 -15 1 -5 2 -11 1 -15
0 -5 4 -8 9 -8 6 0 10 -9 10 -19 0 -11 5 -23 10 -26 6 -4 8 -11 5 -16 -4 -5
-1 -9 5 -9 7 0 10 -6 7 -14 -3 -8 -3 -16 1 -18 4 -2 27 -46 52 -98 25 -52 48
-97 53 -98 4 -2 5 -7 2 -12 -3 -4 2 -13 10 -20 8 -7 15 -21 15 -31 0 -11 5
-19 11 -19 5 0 7 -4 4 -10 -3 -5 -1 -10 6 -10 7 0 9 -3 6 -7 -4 -3 3 -18 15
-31 13 -14 17 -22 10 -18 -11 7 -11 4 0 -13 7 -12 16 -21 20 -21 5 0 8 -7 8
-15 0 -8 5 -15 11 -15 5 0 7 -4 4 -10 -3 -5 -2 -10 3 -10 6 0 13 -11 16 -25 4
-14 11 -25 17 -25 6 0 8 -4 5 -9 -3 -5 1 -12 10 -15 8 -3 12 -10 9 -16 -3 -5
-1 -10 6 -10 7 0 9 -3 6 -7 -4 -3 1 -12 11 -20 11 -10 12 -12 2 -8 -8 4 -6 -1
5 -10 11 -9 20 -19 20 -24 0 -4 8 -15 18 -25 9 -10 15 -21 13 -25 -3 -4 4 -14
15 -21 10 -8 19 -20 19 -27 0 -7 5 -13 11 -13 5 0 8 -4 4 -9 -3 -6 4 -15 16
-21 11 -7 18 -14 15 -17 -3 -3 2 -12 12 -20 10 -9 11 -12 2 -7 -8 4 -4 -5 10
-19 41 -43 60 -67 60 -73 0 -4 8 -13 18 -21 10 -9 11 -12 2 -7 -8 4 0 -8 18
-27 64 -67 77 -82 62 -74 -8 4 2 -7 22 -24 21 -18 37 -35 36 -39 -2 -6 29 -41
115 -129 18 -18 28 -33 22 -33 -5 0 1 -6 15 -13 14 -8 24 -18 24 -23 -1 -5 31
-41 70 -79 l71 -70 40 39 c22 22 33 36 25 32 -8 -4 -3 3 13 16 15 13 27 27 27
32 0 4 20 28 45 52 25 24 46 47 46 51 1 5 5 7 10 5 5 -1 8 2 7 6 -2 4 10 20
26 35 16 15 26 27 23 27 -7 0 42 54 145 161 43 43 76 79 74 79 -3 0 45 50 105
111 60 61 109 115 109 120 0 6 5 7 10 4 6 -3 10 1 10 9 0 9 6 16 14 16 8 0 18
5 22 12 5 7 3 8 -7 3 -12 -8 -12 -6 0 8 7 9 17 15 21 12 5 -3 11 4 15 15 3 11
12 19 18 17 7 -1 11 4 10 11 -2 6 2 12 7 12 6 0 62 52 125 115 63 63 117 115
121 115 3 0 27 21 52 48 25 26 41 41 37 33 -5 -9 -4 -12 3 -7 7 4 12 14 12 22
0 8 4 14 10 14 9 0 49 35 144 127 21 21 35 31 30 23 -4 -8 11 3 33 25 47 45
107 98 153 135 17 14 43 36 57 50 14 14 22 18 18 10 -5 -8 8 2 28 23 20 21 37
35 37 30 0 -4 5 0 11 10 6 9 14 15 20 12 5 -4 9 1 9 9 0 9 4 16 9 16 6 0 23
11 38 25 47 42 52 45 63 45 6 0 8 5 5 10 -3 6 -2 10 3 10 5 0 22 11 38 25 47
41 58 50 64 50 6 -1 35 22 63 50 11 11 16 13 12 5 -5 -8 2 -5 16 7 66 61 80
72 99 78 11 4 18 10 15 15 -3 4 8 14 25 22 16 7 30 16 30 21 0 4 11 12 25 17
14 5 25 14 25 20 0 6 4 8 10 5 5 -3 15 3 22 15 7 11 18 20 25 20 7 0 13 5 13
10 0 6 5 10 11 10 7 0 20 10 30 22 11 11 19 17 19 12 0 -5 5 -2 10 6 5 8 13
15 18 15 5 0 16 8 26 18 10 9 31 24 47 32 16 9 29 20 29 25 0 6 6 10 13 10 10
0 29 14 85 60 6 6 12 7 12 3 0 -4 5 0 11 10 6 9 14 15 19 12 5 -3 14 4 20 15
6 11 15 18 21 15 5 -4 12 1 15 9 3 9 15 16 25 16 11 0 22 6 25 13 3 8 19 24
36 37 17 12 27 16 23 9 -5 -8 4 -2 19 13 16 15 37 30 47 33 10 4 19 11 19 16
0 6 4 8 9 5 5 -4 11 -2 13 2 1 5 32 28 68 52 36 24 67 47 68 52 2 4 8 6 13 2
5 -3 12 2 15 10 3 9 10 14 14 11 4 -3 11 2 14 11 3 8 10 12 16 9 6 -3 13 1 16
9 3 9 10 14 14 11 4 -3 11 2 14 11 4 9 9 14 13 11 3 -4 12 1 20 11 10 11 12
12 8 2 -4 -8 1 -6 10 5 9 11 21 19 26 18 5 -2 9 2 9 9 0 6 3 8 6 5 4 -4 15 3
25 15 11 11 19 17 19 13 0 -5 7 0 16 11 8 10 12 12 8 4 -5 -11 -2 -10 12 3 31
29 136 98 128 85 -4 -7 5 0 19 15 15 15 30 26 35 24 4 -2 15 4 25 15 13 14 14
18 3 18 -8 0 -18 5 -22 12 -5 7 -3 8 6 3 9 -5 11 -4 6 3 -4 7 -12 12 -17 12
-5 0 -25 15 -43 33 -18 17 -42 38 -52 45 -10 7 -13 10 -5 6 9 -5 12 -3 7 4 -4
7 -12 12 -17 12 -15 0 -39 26 -32 34 4 3 1 6 -6 6 -15 0 -251 237 -251 252 0
6 -3 8 -6 5 -8 -7 -44 31 -44 45 0 5 -3 7 -7 5 -5 -3 -14 1 -21 9 -7 8 -10 14
-6 14 3 0 -12 17 -35 39 -22 21 -38 41 -34 45 3 3 1 6 -6 6 -13 0 -41 24 -41
35 0 4 -13 20 -30 35 -16 15 -30 32 -30 38 0 5 -13 20 -29 33 -16 13 -27 27
-25 31 3 4 -2 8 -10 8 -9 0 -16 5 -16 11 0 7 -11 22 -26 35 -14 13 -22 24 -18
24 3 0 -8 13 -25 29 -17 16 -31 33 -31 37 0 5 -12 19 -27 32 -16 13 -21 20
-13 17 8 -4 2 4 -15 19 -16 14 -26 25 -21 26 5 0 -1 9 -14 20 -13 11 -19 20
-14 20 5 0 -2 7 -14 16 -12 8 -20 19 -18 23 3 4 -6 15 -20 25 -13 11 -24 24
-24 30 0 6 -14 26 -31 44 -16 17 -27 32 -23 32 4 0 -1 7 -12 15 -10 8 -15 15
-11 15 4 0 -2 11 -15 25 -37 39 -49 55 -43 55 4 0 0 7 -7 15 -7 8 -17 20 -23
28 -5 7 -19 24 -30 37 -11 13 -14 20 -7 16 11 -7 11 -4 1 12 -7 12 -17 18 -21
16 -4 -3 -8 2 -8 10 0 9 -5 16 -11 16 -5 0 -7 5 -4 10 3 6 2 10 -4 10 -5 0
-13 9 -16 20 -3 11 -12 26 -18 32 -16 17 -51 71 -52 80 0 3 -10 18 -22 32 -13
14 -20 26 -17 26 3 0 -2 7 -10 16 -9 8 -14 19 -11 24 3 4 -2 11 -11 14 -8 3
-13 10 -10 15 3 5 -1 11 -9 15 -8 3 -15 15 -15 26 0 11 -4 20 -10 20 -5 0 -10
7 -10 15 0 8 -5 15 -11 15 -5 0 -8 4 -5 9 3 5 -1 14 -9 21 -8 7 -15 19 -15 26
0 8 -4 14 -9 14 -5 0 -12 14 -16 31 -4 17 -10 28 -13 25 -6 -7 -36 53 -34 67
1 4 -3 7 -10 7 -6 0 -9 3 -5 6 3 3 -3 15 -14 27 -10 11 -19 29 -19 39 0 10 -5
18 -11 18 -5 0 -7 5 -4 10 3 6 1 10 -5 10 -6 0 -8 5 -5 10 3 6 2 10 -2 10 -9
0 -37 59 -34 73 0 4 -4 7 -10 7 -5 0 -7 5 -4 10 3 6 1 10 -5 10 -6 0 -8 5 -5
10 3 6 1 10 -5 10 -6 0 -8 5 -5 10 3 6 1 10 -5 10 -6 0 -8 5 -5 10 3 6 1 10
-5 10 -6 0 -8 5 -5 10 3 6 1 10 -5 10 -6 0 -8 5 -5 10 3 6 1 10 -4 10 -6 0
-11 9 -11 19 0 11 -5 23 -10 26 -6 4 -8 11 -5 16 4 5 1 9 -5 9 -6 0 -9 4 -6 9
3 5 -1 14 -9 21 -8 7 -12 16 -9 21 3 5 0 9 -7 9 -7 0 -9 3 -6 7 4 3 2 12 -4
20 -6 7 -8 13 -5 13 4 0 0 7 -8 16 -9 8 -14 20 -11 25 4 5 1 9 -5 9 -6 0 -9 4
-5 9 3 5 1 12 -5 16 -6 4 -8 11 -5 16 4 5 1 9 -6 9 -7 0 -9 3 -6 6 3 4 1 16
-5 28 -7 11 -11 24 -10 29 1 4 -3 7 -8 7 -6 0 -10 6 -8 13 1 6 -5 26 -15 43
-9 17 -13 34 -10 38 4 3 0 6 -7 6 -7 0 -10 3 -7 7 4 3 2 12 -4 20 -6 7 -8 13
-4 13 4 0 0 11 -9 25 -9 14 -14 25 -11 25 3 0 -1 13 -9 29 -9 16 -12 31 -9 35
4 3 0 6 -7 6 -7 0 -11 3 -7 6 3 4 0 19 -9 35 -8 16 -12 29 -9 29 3 0 -1 14
-10 30 -9 17 -13 30 -9 30 4 0 1 6 -5 13 -6 8 -12 22 -14 33 -8 40 -20 79 -28
89 -4 6 -10 22 -12 35 -3 14 -10 36 -15 50 -5 14 -10 28 -11 33 0 4 -1 8 -2
10 -4 12 -10 44 -11 55 -1 6 -6 12 -11 12 -6 0 -8 3 -4 6 3 3 -1 29 -10 57 -8
28 -16 58 -18 66 -2 9 -8 27 -13 41 -5 14 -10 28 -10 33 -1 6 -13 70 -18 90
-1 4 -2 8 -4 10 -1 1 -3 11 -5 22 -2 11 -8 38 -14 60 -19 78 -24 100 -26 118
-2 9 -3 18 -5 20 -1 1 -3 11 -5 22 -5 22 -21 103 -30 150 -4 17 -7 38 -8 48
-1 19 -22 23 -32 7z"/>
<path d="M10897 15024 c-1 -1 -22 -5 -47 -8 -25 -3 -56 -9 -70 -12 -14 -3 -32
-7 -40 -8 -9 -1 -21 -5 -28 -10 -6 -4 -16 -4 -22 -1 -5 3 -10 2 -10 -4 0 -6
-7 -8 -15 -5 -8 4 -15 1 -15 -5 0 -7 -6 -11 -12 -9 -7 1 -24 -4 -38 -12 -14
-7 -26 -13 -28 -12 -1 1 -18 -4 -37 -12 -20 -9 -39 -16 -43 -16 -4 -1 -14 -8
-23 -16 -9 -8 -19 -11 -22 -7 -4 3 -7 2 -7 -3 0 -5 -25 -22 -54 -38 -30 -16
-53 -33 -50 -37 2 -4 -5 -10 -16 -14 -11 -3 -20 -11 -20 -17 0 -6 -3 -9 -6 -5
-4 3 -19 -6 -35 -21 -15 -15 -43 -41 -61 -58 -49 -47 -128 -139 -128 -150 0
-4 -10 -15 -22 -25 -11 -11 -17 -19 -13 -19 5 0 -2 -12 -16 -27 -13 -14 -18
-22 -10 -18 8 5 3 -7 -12 -27 -15 -19 -24 -38 -20 -41 3 -4 1 -7 -6 -7 -7 0
-9 -4 -6 -10 3 -5 1 -10 -5 -10 -6 0 -8 -4 -5 -10 3 -5 1 -10 -5 -10 -6 0 -8
-4 -5 -10 3 -5 2 -10 -4 -10 -6 0 -8 -7 -5 -15 4 -8 1 -15 -7 -15 -7 0 -10 -3
-7 -6 4 -3 -1 -22 -9 -42 -13 -32 -18 -49 -27 -97 -1 -5 -5 -16 -9 -22 -5 -7
-6 -13 -4 -13 2 0 -2 -29 -8 -65 -13 -66 -12 -272 0 -350 11 -69 13 -80 15
-80 1 0 3 -11 6 -25 4 -23 10 -44 30 -95 4 -11 8 -23 9 -27 2 -5 4 -11 5 -15
1 -5 2 -11 1 -15 0 -5 3 -8 9 -8 5 0 10 -9 10 -20 0 -11 5 -20 11 -20 5 0 8
-4 4 -9 -3 -5 2 -17 11 -25 8 -9 13 -16 9 -16 -4 0 1 -7 9 -16 9 -8 14 -20 11
-25 -4 -5 -1 -9 4 -9 6 0 11 -4 11 -9 0 -14 53 -91 62 -91 5 0 7 -4 4 -8 -3
-5 6 -16 20 -26 13 -11 24 -23 24 -28 0 -5 19 -28 43 -51 23 -22 40 -45 39
-51 -2 -6 0 -8 4 -4 4 4 15 -2 25 -14 11 -11 19 -18 19 -13 0 4 14 -8 31 -26
17 -19 28 -27 24 -19 -3 8 2 5 13 -7 11 -12 22 -19 26 -16 3 4 6 1 6 -5 0 -7
7 -12 15 -12 8 0 15 -4 15 -9 0 -5 14 -14 30 -21 17 -7 30 -17 30 -22 0 -5 4
-7 9 -3 5 3 15 -1 23 -8 7 -7 16 -14 20 -16 4 -1 25 -9 45 -18 21 -9 44 -16
51 -16 6 0 12 -4 12 -9 0 -4 3 -7 8 -7 4 1 9 0 12 -1 10 -3 45 -11 58 -12 6
-1 12 -4 12 -8 0 -4 6 -7 13 -7 14 0 71 -10 107 -18 31 -8 119 -15 185 -16 91
-2 260 22 297 42 9 5 21 9 25 8 19 -4 73 14 73 24 0 6 3 8 6 4 4 -3 19 0 35 9
16 8 29 11 29 8 0 -4 8 0 18 9 10 10 22 14 25 10 4 -3 7 -1 7 6 0 7 5 9 10 6
6 -3 10 -1 10 4 0 6 7 11 15 11 8 0 15 5 15 11 0 5 4 7 10 4 5 -3 17 3 27 14
9 11 20 18 25 15 4 -3 11 2 14 10 3 9 11 16 16 16 6 0 17 8 25 18 9 10 12 11
7 2 -3 -8 8 1 26 20 19 19 35 34 36 33 2 -1 38 32 81 74 43 43 69 71 58 63
-15 -12 -14 -8 5 16 14 17 28 30 32 27 4 -2 10 7 14 21 3 13 12 27 21 30 8 3
11 10 8 16 -3 6 1 13 9 16 9 3 13 10 10 15 -3 5 0 9 5 9 6 0 11 6 11 14 0 8 7
22 16 30 8 9 13 16 9 16 -3 0 0 10 7 23 7 12 11 25 10 30 -1 4 2 7 8 7 5 0 10
9 10 19 0 11 5 23 10 26 6 4 8 11 5 16 -4 5 -1 9 6 9 7 0 10 3 6 6 -3 4 0 22
8 40 8 19 14 37 15 39 0 3 0 6 1 8 0 1 2 9 4 17 2 8 6 29 10 45 26 119 26 349
0 470 -4 17 -7 38 -8 48 -1 9 -6 17 -11 17 -5 0 -7 3 -3 6 3 3 -1 23 -8 44 -7
21 -11 41 -8 44 4 3 1 6 -6 6 -7 0 -9 5 -6 10 3 6 1 10 -5 10 -7 0 -10 7 -6
15 3 8 1 15 -4 15 -6 0 -10 3 -9 8 2 14 -13 52 -21 52 -7 0 -11 9 -24 50 -4
12 -41 66 -51 72 -6 5 -6 8 0 8 6 0 1 7 -9 15 -11 8 -16 15 -11 15 4 0 -2 9
-15 20 -13 11 -20 20 -15 20 4 0 -10 16 -31 36 -22 20 -30 31 -19 24 11 -8 1
4 -23 26 -24 21 -65 60 -92 86 -28 26 -50 44 -50 40 0 -4 -5 1 -11 11 -6 9
-14 15 -20 12 -5 -4 -9 -1 -9 4 0 6 -7 11 -15 11 -8 0 -15 4 -15 8 0 5 -18 17
-40 27 -22 10 -40 22 -40 27 0 4 -9 8 -20 8 -11 0 -20 5 -20 11 0 5 -4 8 -9 4
-5 -3 -16 2 -25 11 -9 8 -20 12 -26 9 -5 -3 -10 -1 -10 5 0 6 -4 8 -10 5 -5
-3 -10 -1 -10 5 0 6 -4 9 -9 6 -5 -3 -21 1 -37 9 -15 7 -31 12 -36 9 -4 -3 -8
-1 -8 5 0 5 -8 10 -17 9 -10 0 -29 3 -43 7 -14 3 -38 8 -55 11 -16 3 -41 8
-55 10 -24 5 -258 12 -263 8z"/>
<path d="M13355 13824 c-27 -31 -60 -67 -73 -82 -88 -101 -243 -262 -467 -487
-256 -256 -339 -336 -485 -465 -40 -36 -84 -74 -96 -85 -267 -238 -664 -550
-958 -753 l-47 -32 38 -33 c69 -60 227 -212 490 -472 145 -143 267 -261 271
-263 4 -1 25 21 47 50 22 29 42 55 46 58 11 9 206 275 245 335 21 33 41 62 44
65 16 14 169 262 257 415 83 143 217 404 288 560 55 120 62 137 78 175 8 19
22 51 30 70 45 97 147 372 217 580 48 145 132 420 127 420 -1 0 -24 -25 -52
-56z"/>
<path d="M9980 12546 c0 -2 8 -10 18 -17 15 -13 16 -12 3 4 -13 16 -21 21 -21
13z"/>
<path d="M11010 11566 c0 -2 8 -10 18 -17 15 -13 16 -12 3 4 -13 16 -21 21
-21 13z"/>
<path d="M9401 10660 c-24 -16 -53 -36 -65 -44 -11 -9 -167 -114 -346 -234
-179 -120 -363 -244 -410 -277 -177 -123 -235 -164 -245 -172 -13 -11 -279
-203 -308 -223 -28 -19 -220 -163 -227 -170 -3 -3 -57 -46 -120 -95 -139 -108
-299 -237 -400 -323 -115 -98 -192 -165 -216 -187 -12 -11 -50 -45 -84 -75
-234 -205 -642 -618 -845 -854 -27 -32 -58 -68 -69 -80 -10 -11 -35 -41 -55
-66 -20 -25 -49 -59 -64 -76 -36 -40 -243 -307 -326 -421 -150 -203 -487 -724
-458 -706 7 4 73 53 147 109 160 120 475 342 508 357 12 5 22 14 22 19 0 4 4
8 9 8 5 0 44 24 87 53 114 77 299 192 475 298 150 89 568 329 574 329 2 0 34
17 72 38 212 120 599 318 1268 650 321 159 494 248 617 318 43 24 80 44 83 44
3 0 31 16 61 35 30 19 57 35 60 35 7 0 373 213 549 320 323 196 846 543 837
556 -4 5 -155 128 -337 273 -181 144 -339 270 -350 279 -11 10 -85 69 -165
132 -80 63 -147 117 -150 120 -9 10 -77 60 -81 59 -2 0 -24 -13 -48 -29z"/>
<path d="M10834 9482 c-34 -26 -70 -53 -80 -60 -11 -7 -59 -41 -109 -75 -49
-34 -155 -104 -235 -155 -80 -50 -150 -96 -157 -102 -7 -5 -15 -10 -19 -10 -3
0 -20 -10 -37 -22 -18 -13 -48 -31 -67 -41 -19 -11 -51 -29 -70 -42 -34 -22
-179 -108 -250 -147 -19 -11 -109 -62 -200 -113 -199 -112 -300 -168 -360
-198 -25 -12 -47 -24 -50 -27 -3 -3 -30 -18 -60 -33 -30 -16 -97 -51 -147 -78
-274 -145 -510 -268 -1048 -544 -104 -54 -235 -121 -290 -150 -55 -29 -152
-79 -215 -111 -63 -32 -116 -62 -118 -66 -2 -5 -12 -8 -22 -8 -10 0 -20 -3
-22 -7 -1 -5 -37 -25 -78 -47 -112 -58 -234 -124 -335 -180 -50 -28 -103 -57
-118 -65 -15 -8 -27 -17 -27 -21 0 -4 48 -28 108 -53 348 -149 709 -254 1072
-313 131 -21 138 -22 200 -29 30 -4 66 -9 80 -10 201 -27 775 -27 980 0 14 2
50 6 80 9 30 4 66 9 80 11 14 2 57 9 95 15 329 50 740 171 1060 312 95 42 357
176 443 227 121 71 316 203 399 269 33 26 78 61 99 77 210 164 501 467 691
720 74 99 90 128 74 133 -6 2 -17 9 -24 16 -6 7 -57 46 -112 88 -55 42 -149
115 -210 162 -60 47 -129 101 -153 118 -23 18 -53 42 -66 53 -13 11 -38 31
-56 45 -29 21 -320 247 -345 267 -5 5 -30 24 -55 43 -25 19 -50 39 -56 45 -24
21 -50 41 -84 65 -19 13 -50 36 -68 52 -18 15 -38 28 -45 27 -7 0 -40 -21 -73
-47z"/>
<path d="M7847 5304 c-1 -1 -40 -4 -87 -8 -91 -6 -101 -8 -225 -32 -467 -89
-932 -384 -1223 -777 -87 -118 -163 -247 -212 -362 -12 -27 -27 -63 -35 -80
-35 -82 -86 -276 -102 -390 -10 -71 -10 -381 -1 -445 59 -393 272 -760 573
-986 33 -25 67 -51 75 -57 45 -37 291 -167 315 -167 4 0 21 -6 38 -14 92 -42
285 -86 442 -102 492 -48 1026 118 1430 445 83 67 251 234 291 288 15 21 33
43 38 48 15 14 109 152 136 200 124 216 213 475 237 690 9 75 8 345 -1 405
-29 192 -101 409 -176 532 -17 26 -30 51 -30 53 0 8 -68 103 -122 172 -75 95
-221 227 -335 303 -202 135 -411 217 -678 264 -62 11 -339 27 -348 20z m203
-628 c14 -3 39 -8 55 -12 54 -10 189 -56 240 -82 267 -133 481 -396 530 -654
2 -10 6 -22 9 -26 7 -12 20 -155 20 -222 0 -286 -124 -569 -349 -796 -122
-123 -184 -170 -330 -249 -42 -23 -190 -84 -215 -90 -8 -2 -42 -10 -75 -18
-100 -26 -125 -29 -265 -32 -230 -6 -395 34 -595 144 -145 79 -302 248 -378
405 -76 157 -101 268 -101 441 0 133 13 221 50 340 15 47 112 254 124 265 3 3
23 30 44 60 46 65 70 93 150 172 53 53 185 159 211 169 6 2 39 21 75 41 117
66 293 127 415 143 28 4 52 9 54 11 7 6 301 -3 331 -10z"/>
<path d="M3495 5273 c-121 -24 -214 -85 -284 -186 -30 -44 -80 -145 -86 -176
-2 -9 -10 -45 -18 -81 -16 -68 -23 -117 -42 -295 -10 -93 -15 -137 -20 -175
-2 -19 -7 -62 -10 -95 -3 -33 -8 -73 -10 -90 -2 -16 -6 -64 -10 -105 -3 -41
-8 -82 -10 -90 -2 -8 -7 -46 -11 -85 -3 -38 -8 -78 -10 -88 -2 -10 -6 -53 -10
-95 -3 -42 -7 -79 -9 -82 -2 -3 -6 -43 -10 -90 -4 -47 -9 -93 -11 -103 -2 -10
-6 -48 -9 -85 -4 -37 -9 -80 -11 -97 -2 -16 -6 -52 -9 -80 -4 -27 -8 -66 -10
-85 -3 -19 -8 -64 -11 -100 -4 -36 -8 -76 -9 -90 -2 -14 -6 -52 -9 -85 -4 -33
-9 -73 -11 -90 -2 -16 -7 -57 -10 -90 -3 -33 -8 -76 -10 -95 -8 -55 -14 -109
-20 -185 -3 -38 -8 -77 -10 -85 -2 -8 -7 -49 -10 -90 -4 -41 -8 -77 -10 -80
-2 -3 -6 -46 -10 -96 l-6 -91 258 -2 c142 -1 286 -3 321 -4 34 -1 62 0 63 3 0
3 2 12 4 20 2 15 14 119 20 190 10 110 16 169 20 200 2 19 7 64 10 100 3 36 7
81 10 100 2 19 7 64 10 100 3 36 8 81 10 100 7 58 14 131 20 195 5 59 10 106
20 203 3 26 7 70 10 97 3 28 7 66 10 85 2 19 7 67 10 105 3 39 8 86 10 105 3
19 7 64 11 100 3 36 7 76 9 90 1 14 6 61 9 104 4 43 9 87 11 97 2 10 6 53 10
96 6 76 14 135 19 140 1 1 26 -55 56 -125 148 -351 202 -480 215 -507 7 -16
86 -203 176 -415 241 -571 246 -584 304 -726 75 -185 109 -241 196 -331 62
-64 124 -106 196 -133 86 -32 138 -39 203 -27 177 32 305 163 388 397 41 116
57 199 77 390 9 93 26 246 30 280 3 19 7 62 10 95 3 33 7 76 10 95 2 19 7 64
11 100 3 36 8 76 9 90 2 14 6 50 9 80 3 30 8 75 11 100 12 109 14 128 20 180
3 30 7 75 10 100 3 25 8 63 10 85 10 99 16 154 21 200 7 54 8 63 18 175 4 41
9 86 12 100 4 25 7 48 19 172 3 37 7 75 9 85 2 10 7 56 11 103 4 47 9 93 10
102 2 9 6 45 10 80 5 61 10 104 20 178 11 89 16 180 8 181 -61 7 -619 2 -629
-6 -7 -6 -15 -44 -19 -90 -3 -44 -8 -91 -10 -105 -5 -33 -14 -112 -20 -180 -3
-30 -7 -66 -10 -80 -2 -14 -7 -61 -11 -104 -3 -44 -7 -87 -9 -96 -2 -10 -6
-53 -10 -96 -4 -43 -9 -87 -10 -96 -2 -9 -6 -48 -10 -85 -3 -37 -8 -79 -10
-93 -3 -14 -7 -54 -10 -90 -3 -36 -8 -81 -11 -100 -4 -33 -10 -91 -19 -185 -6
-60 -17 -158 -20 -177 -2 -9 -6 -53 -10 -98 -4 -45 -8 -90 -10 -99 -2 -10 -6
-54 -10 -97 -4 -43 -9 -88 -11 -99 -2 -11 -7 -47 -9 -80 -3 -33 -7 -69 -10
-80 -2 -11 -4 -35 -4 -52 -1 -18 -5 -33 -9 -33 -4 0 -41 82 -81 183 -41 100
-82 200 -91 222 -10 22 -52 123 -93 225 -41 102 -96 237 -122 300 -132 322
-160 392 -192 470 -43 103 -55 135 -126 317 -30 78 -73 174 -96 212 -97 164
-251 285 -403 317 -34 7 -130 11 -153 7z"/>
<path d="M229 5258 c-2 -4 -6 -36 -13 -118 -4 -41 -9 -86 -11 -100 -2 -14 -6
-54 -10 -90 -3 -36 -8 -83 -10 -105 -2 -22 -7 -65 -10 -95 -3 -30 -8 -80 -11
-110 -3 -30 -7 -66 -9 -80 -1 -14 -6 -54 -9 -90 -4 -36 -8 -78 -10 -95 -2 -16
-7 -68 -11 -114 -4 -47 -8 -92 -10 -100 -3 -16 -11 -92 -20 -191 -3 -30 -7
-71 -10 -90 -3 -31 -8 -79 -20 -205 -11 -105 -17 -162 -20 -185 -2 -14 -6 -54
-10 -90 -3 -36 -7 -81 -10 -100 -2 -19 -8 -62 -12 -95 -10 -79 -10 -368 0
-425 60 -336 187 -548 423 -706 44 -29 98 -61 120 -69 21 -9 53 -22 69 -29 53
-24 194 -64 250 -71 17 -3 55 -8 85 -12 70 -9 266 -9 348 0 182 21 353 72 490
144 67 35 144 82 152 92 3 3 22 19 43 34 43 32 148 135 191 187 55 68 138 202
181 293 42 90 103 258 111 307 3 14 10 43 16 65 12 46 16 65 23 115 3 20 7 45
9 55 6 30 18 145 21 190 3 41 13 128 29 260 3 22 8 67 11 100 4 33 8 71 10 85
2 14 7 50 10 80 3 30 8 66 10 80 2 14 7 54 10 90 4 36 9 73 10 82 2 9 7 52 10
95 4 43 9 85 10 94 3 15 9 59 20 159 3 25 7 63 10 85 3 22 7 60 10 85 4 44 9
86 21 184 3 27 7 56 9 65 1 9 6 50 10 91 4 41 8 82 10 90 1 8 6 45 9 83 l7 67
-335 0 -336 0 -1 -32 c0 -18 -2 -42 -3 -53 -2 -11 -7 -53 -11 -94 -4 -41 -8
-82 -10 -91 -2 -9 -6 -51 -9 -92 -4 -42 -9 -91 -11 -110 -2 -18 -7 -58 -10
-88 -3 -30 -8 -73 -10 -95 -3 -22 -7 -67 -11 -100 -3 -33 -7 -71 -9 -85 -2
-14 -7 -56 -10 -95 -3 -38 -8 -83 -10 -100 -2 -16 -6 -57 -10 -90 -3 -33 -8
-78 -10 -100 -2 -22 -7 -65 -10 -95 -3 -30 -8 -71 -10 -90 -2 -19 -7 -66 -11
-105 -4 -38 -8 -81 -9 -95 -2 -14 -6 -52 -9 -85 -4 -33 -9 -73 -11 -90 -2 -16
-7 -68 -10 -115 -4 -47 -9 -88 -11 -91 -1 -3 -6 -29 -9 -58 -11 -92 -52 -237
-94 -325 -118 -253 -306 -374 -591 -382 -370 -11 -522 163 -524 601 0 85 9
229 19 305 3 19 7 60 10 90 9 85 14 131 20 180 4 25 8 70 11 100 2 30 6 69 8
85 9 80 18 161 21 194 2 20 6 57 9 84 7 58 13 113 21 192 3 33 8 76 10 95 3
19 7 64 10 100 5 61 8 88 20 178 2 20 7 64 10 97 3 33 7 74 9 90 4 29 16 145
21 195 3 34 17 153 18 165 2 9 -650 21 -654 13z"/>
<path d="M13615 5187 c-107 -10 -238 -38 -340 -72 -313 -108 -541 -338 -628
-635 -41 -141 -46 -171 -42 -275 7 -188 82 -343 241 -500 164 -163 384 -289
846 -485 223 -95 335 -180 389 -295 80 -168 -9 -334 -219 -409 l-74 -26 -694
3 c-624 3 -694 2 -698 -12 -3 -9 -7 -41 -10 -71 -12 -118 -16 -162 -21 -212
-3 -29 -7 -64 -10 -78 -2 -14 -7 -56 -10 -95 -3 -38 -8 -86 -11 -106 l-4 -35
47 -1 c27 0 271 -4 543 -9 272 -4 529 -8 570 -8 80 -1 188 8 310 25 539 78
880 387 997 904 12 56 9 194 -7 266 -38 168 -148 339 -301 464 -133 110 -330
225 -609 358 -302 144 -353 170 -423 217 -156 104 -209 208 -158 308 36 71
126 124 246 147 17 3 312 5 658 5 503 -1 627 2 628 12 0 7 2 22 4 33 2 11 7
60 10 108 4 49 8 97 10 107 2 10 6 54 9 97 6 77 11 133 21 226 l5 47 -298 1
c-163 0 -430 1 -592 2 -162 1 -335 -2 -385 -6z"/>
<path d="M11078 5185 c-2 -1 -46 -6 -98 -9 -101 -7 -113 -8 -230 -32 -243 -50
-460 -170 -601 -330 -29 -34 -109 -150 -109 -159 0 -3 -11 -30 -24 -60 -23
-49 -52 -137 -60 -181 -8 -42 -16 -102 -21 -154 -3 -30 -8 -71 -10 -90 -2 -19
-7 -62 -10 -95 -7 -66 -13 -121 -20 -175 -5 -42 -12 -103 -20 -185 -8 -76 -14
-129 -20 -180 -3 -22 -7 -60 -10 -85 -2 -25 -6 -63 -9 -85 -3 -22 -8 -69 -11
-105 -3 -36 -8 -72 -10 -80 -2 -8 -7 -51 -10 -94 -4 -43 -8 -86 -10 -95 -1 -9
-6 -45 -9 -81 -4 -36 -9 -78 -12 -95 -3 -16 -7 -93 -9 -170 -3 -114 0 -154 16
-215 20 -76 67 -183 97 -219 10 -10 33 -38 52 -62 78 -95 279 -210 410 -235
14 -3 41 -9 60 -14 76 -20 180 -24 570 -22 777 2 960 6 961 17 0 5 2 19 3 30
2 11 6 49 11 85 4 36 9 74 11 85 2 11 7 43 9 71 3 28 7 60 9 71 3 11 7 44 11
74 3 30 8 71 11 91 l5 38 -613 0 c-337 0 -626 2 -643 5 -164 30 -267 109 -295
226 -11 45 -9 175 5 284 2 17 6 73 10 125 4 52 9 104 10 115 1 11 3 26 4 33 1
9 135 12 636 12 l635 0 1 28 c0 15 2 41 4 57 1 17 6 66 9 110 4 44 9 91 11
105 3 21 13 146 19 239 l1 24 -415 -2 c-228 -2 -511 -4 -627 -5 -140 -1 -213
2 -214 9 -2 12 -2 -3 6 135 11 181 13 206 20 265 23 202 152 334 370 381 28 6
226 9 983 15 177 2 322 6 323 9 1 3 2 16 4 30 1 14 5 57 9 95 4 39 9 90 12
115 2 25 6 63 9 85 6 46 18 179 19 214 l1 25 -590 3 c-324 2 -598 5 -607 7 -9
2 -18 3 -20 1z"/>
<path d="M16437 5174 c-1 -1 -45 -4 -97 -7 -93 -6 -175 -18 -275 -41 -180 -42
-387 -168 -487 -297 -12 -16 -33 -41 -44 -54 -30 -33 -106 -187 -132 -268 -20
-62 -42 -182 -57 -317 -3 -30 -8 -71 -10 -90 -3 -19 -7 -57 -10 -85 -3 -27 -8
-61 -10 -75 -2 -14 -7 -47 -10 -75 -3 -27 -7 -66 -10 -85 -2 -19 -7 -60 -10
-90 -4 -30 -8 -66 -10 -80 -2 -14 -6 -52 -10 -85 -4 -32 -8 -66 -10 -75 -2 -9
-6 -46 -9 -82 -4 -37 -9 -77 -11 -89 -3 -12 -7 -47 -10 -78 -3 -31 -7 -67 -9
-81 -3 -14 -8 -52 -11 -85 -3 -33 -8 -73 -10 -90 -24 -182 -28 -233 -28 -311
1 -51 8 -125 18 -165 16 -73 75 -211 101 -237 8 -7 14 -17 14 -22 0 -17 127
-135 191 -176 107 -70 237 -121 366 -143 32 -6 72 -14 88 -18 17 -4 339 -9
718 -10 652 -3 687 -3 688 14 0 10 2 27 3 38 2 11 6 51 10 89 4 37 9 80 11 95
1 14 6 55 10 91 3 36 8 81 10 100 2 19 7 62 10 95 4 33 9 63 11 67 3 5 -275 8
-618 9 -343 0 -636 3 -653 5 -130 20 -225 86 -263 184 -24 62 -22 283 3 450 2
14 6 57 10 95 3 39 8 86 10 105 2 19 6 64 10 100 3 36 8 81 10 100 2 19 7 64
10 100 7 79 14 145 20 185 2 17 7 66 10 110 4 44 8 87 10 95 2 8 7 51 10 95
14 181 55 295 134 375 63 63 121 95 221 121 89 23 202 26 1102 28 l206 1 7 63
c4 34 9 69 10 77 2 8 6 40 9 70 4 30 9 71 11 90 2 19 7 58 11 85 3 28 10 72
15 99 5 27 9 56 9 65 0 15 -58 16 -641 16 -352 0 -641 -1 -642 -1z"/>
</g>
</svg>
