<svg xmlns="http://www.w3.org/2000/svg" viewBox="0 0 1771.97 1400.82">
  <defs>
    <style>
      .cls-1, .cls-2 {
        fill: #70c17a;
      }

      .cls-1 {
        fill-rule: evenodd;
      }
    </style>
  </defs>
  <title>logotipo-unoesc-verde</title>
  <g id="Layer_2" data-name="Layer 2">
    <g id="Layer_1-2" data-name="Layer 1">
      <g>
        <path class="cls-1" d="M1101.47,84.38A118.27,118.27,0,1,1,983.21,202.65,118.28,118.28,0,0,1,1101.47,84.38Z"/>
        <path class="cls-1" d="M1360.51,806.1c-68.2-191.84-207.52-324.79-347.32-458.18C902.36,242.17,791.26,136.14,712.39,0c27.09,309.93,230.44,464.11,418.37,606.58C1215.65,670.93,1297.53,733,1360.51,806.1Z"/>
        <path class="cls-1" d="M554.2,790c-83.11-81-134.86-194-134.86-318.74,0-177.06,104.24-330.54,254.48-402.24.8,4.71,1.65,9.37,2.53,14,.16.83.31,1.66.47,2.49.79,4.13,1.63,8.23,2.49,12.31.29,1.35.57,2.7.86,4q1.29,5.91,2.65,11.72c.3,1.28.61,2.56.92,3.85q1.37,5.72,2.82,11.36c.34,1.31.7,2.63,1,3.93q1.46,5.48,3,10.88c.38,1.34.77,2.66,1.15,4,.9,3.08,1.81,6.15,2.73,9.19.49,1.6,1,3.2,1.47,4.78q1.56,5,3.19,10c.39,1.16.77,2.33,1.16,3.49q1.79,5.33,3.65,10.58l1.36,3.81q2,5.37,4,10.69c.39,1,.78,2,1.17,3,1.35,3.48,2.7,6.94,4.1,10.37.52,1.28,1,2.55,1.58,3.83q1.89,4.57,3.83,9.1c.51,1.18,1,2.36,1.55,3.55q1.89,4.32,3.84,8.6c.51,1.14,1,2.29,1.55,3.42q8.16,17.69,17.37,34.89c.73,1.37,1.47,2.72,2.21,4.08q2.19,4,4.43,8c.79,1.42,1.6,2.83,2.4,4.24q2.12,3.71,4.26,7.36l2.28,3.87c1.53,2.57,3.09,5.12,4.65,7.66.86,1.41,1.73,2.83,2.61,4.23q2.31,3.69,4.65,7.35c.87,1.35,1.74,2.71,2.62,4.05q2.49,3.85,5,7.64c1,1.47,2,2.92,3,4.38,1.46,2.14,2.93,4.28,4.4,6.4,1.33,1.9,2.66,3.8,4,5.68.74,1.05,1.5,2.11,2.25,3.16q3.06,4.26,6.18,8.49l2.05,2.76q3,4,5.95,7.86,1.41,1.86,2.84,3.69,1.86,2.42,3.73,4.8c1.64,2.08,3.29,4.14,4.94,6.2l3.77,4.66,4.33,5.25q2.18,2.63,4.38,5.24c1.41,1.68,2.83,3.34,4.25,5q2.5,2.91,5,5.81c.92,1.06,1.85,2.11,2.77,3.16q3.19,3.63,6.43,7.22c1,1.15,2.08,2.31,3.13,3.46q3.27,3.6,6.59,7.16c.78.85,1.56,1.69,2.35,2.53q4.06,4.33,8.17,8.63l1.47,1.54c1.56,1.61,3.11,3.22,4.68,4.82l1.74,1.77q4.13,4.22,8.3,8.38l1.19,1.17q4.34,4.32,8.72,8.58l1.74,1.68q4.17,4.05,8.4,8l1.71,1.63,4.63,4.36C781.92,575.78,653.57,664.75,554.2,790Z"/>
        <path class="cls-1" d="M1091.55,635.28q65,50.72,130.16,101.76c-81.32,108.91-211.16,179.62-357,179.62a441.87,441.87,0,0,1-193.31-44.3c46.35-26.9,95.74-52.15,146.1-77.88C909.7,747.35,1005,698.64,1091.55,635.28Z"/>
        <path class="cls-1" d="M1202.11,474.47c61.61-73,111.06-162.69,140.29-277.87-64.14,78.06-139,141.9-218.08,200C1150.74,422.18,1176.83,448,1202.11,474.47Z"/>
        <path class="cls-1" d="M515.39,927.11C595,859.43,694.5,808.6,797.81,755.8c86.65-44.27,176.08-90,257.81-148.43-37-28.28-74.16-57.37-109.94-88.48C779.83,629.06,616.61,741.35,515.39,927.11Z"/>
        <path class="cls-2" d="M596.88,1229a176,176,0,0,1,20.83-65.81v0a185.82,185.82,0,0,1,19.94-29.46,211.53,211.53,0,0,1,25.9-26.25l.05,0-.05,0,.05,0a208.27,208.27,0,0,1,29.47-21.32,203.77,203.77,0,0,1,32.53-15.6h0a201.16,201.16,0,0,1,34.44-9.48,198.27,198.27,0,0,1,35.32-3.19,180.28,180.28,0,0,1,34.36,3.25,168.8,168.8,0,0,1,32.33,9.65h0A155.43,155.43,0,0,1,916.32,1108l0,0a153.37,153.37,0,0,1,19.8,26,144.26,144.26,0,0,1,13.4,29.36v0a146.76,146.76,0,0,1,6.71,32A163.22,163.22,0,0,1,956,1229a174.83,174.83,0,0,1-7.14,33.82,181.65,181.65,0,0,1-13.79,32.26v0a197,197,0,0,1-19.92,29.49,209,209,0,0,1-25.32,25.87A214.38,214.38,0,0,1,860,1372.1a204.79,204.79,0,0,1-32.58,15.83h-.05a200.66,200.66,0,0,1-34.44,9.64,191.55,191.55,0,0,1-35.08,3.25,185.06,185.06,0,0,1-34.71-3.22,165.54,165.54,0,0,1-32.35-9.6h0a157.84,157.84,0,0,1-29-15.55,154.87,154.87,0,0,1-24.91-21.22l0,0a155.5,155.5,0,0,1-20.11-26.39,143,143,0,0,1-13.55-29.66l0,0a147.08,147.08,0,0,1-6.69-32.16,166,166,0,0,1,.29-34Zm67.75-.36a111.33,111.33,0,0,0-.27,22,95.7,95.7,0,0,0,4.1,20.52,93.33,93.33,0,0,0,8.3,18.76,99.47,99.47,0,0,0,12.45,16.94l0,0,0,0,0,0a95.3,95.3,0,0,0,15.52,13.69,97.43,97.43,0,0,0,18.22,10h0a102.4,102.4,0,0,0,20.1,6.18,110.28,110.28,0,0,0,21.53,2.05,117.17,117.17,0,0,0,43.22-8.18l.05,0a124.06,124.06,0,0,0,20-10A133.45,133.45,0,0,0,846.32,1307l0,0,0,0,0,0a140.78,140.78,0,0,0,16.15-17.08,124,124,0,0,0,12.49-19v0a118.12,118.12,0,0,0,8.59-20.49,115,115,0,0,0,4.5-21.67,101.26,101.26,0,0,0-3.74-41.81v0a91.41,91.41,0,0,0-8.32-18.78,102.39,102.39,0,0,0-12.61-17.14l0,0A96.34,96.34,0,0,0,848,1137.08v0a93.44,93.44,0,0,0-17.8-10l0,0a98.49,98.49,0,0,0-19.84-6.13,110.92,110.92,0,0,0-21.59-2,119,119,0,0,0-22.11,2A125.4,125.4,0,0,0,745,1127l.06,0a124.39,124.39,0,0,0-20.3,10,127.82,127.82,0,0,0-18.39,13.64,140.72,140.72,0,0,0-16.43,17.18,121.52,121.52,0,0,0-12.36,18.74,116.71,116.71,0,0,0-8.46,20.38A119.15,119.15,0,0,0,664.63,1228.68Z"/>
        <path class="cls-1" d="M342.07,1396.47H277.6l30.54-279.18a87.34,87.34,0,0,1,5.23-22.3,58.59,58.59,0,0,1,11.12-18.32h0a47.73,47.73,0,0,1,17-12,52.32,52.32,0,0,1,20.34-3.9,44.54,44.54,0,0,1,15.08,2.53H377a41.11,41.11,0,0,1,12.86,7.48l0,0A54.05,54.05,0,0,1,400,1082.32a91.48,91.48,0,0,1,8.17,15.38l0,.13,77.24,190,24.46-223.59h64.95l-30.65,280.22c-1.83,16.73-7.18,30-16,40.08l-.06,0a47.94,47.94,0,0,1-16.59,12.24,48.78,48.78,0,0,1-19.84,4,48,48,0,0,1-15.62-2.5,44,44,0,0,1-13.38-7.44l0,0a53.78,53.78,0,0,1-10.53-11.78,83.3,83.3,0,0,1-8-15.38l0,0-77.56-191.38Z"/>
        <path class="cls-1" d="M90.51,1063.17,68.2,1267.11q-2,18.66.53,32.48,2.43,13.1,9,21.94a39.71,39.71,0,0,0,16.6,12.88q10.61,4.5,25.67,4.51a73.82,73.82,0,0,0,26.72-4.5,54,54,0,0,0,19.44-12.93v0a67.87,67.87,0,0,0,13.94-22q5.64-13.8,7.67-32.4l22.31-203.94h66.85L254.41,1269.1q-3.22,29.46-14.37,53.27a136.49,136.49,0,0,1-30.76,42.33,131.19,131.19,0,0,1-43.8,27.17,148.42,148.42,0,0,1-52.23,9q-28.18,0-50.21-8.94a96.88,96.88,0,0,1-37.76-27.18,101.92,101.92,0,0,1-21.45-42.29q-5.93-23.82-2.69-53.31l22.53-205.93Z"/>
        <path class="cls-1" d="M975.37,1322l0-.22,18.83-172.11,0-.22c2.92-22.22,15.7-41.55,34.84-55.6,18.38-13.5,42.67-22,69.43-23.28h.54l120.44,0h11.4l-6.38,58.33H1118.19c-14.81.74-29,2.11-39.3,7.33-8.94,4.51-15.74,12.8-18.63,28l-4.67,42.72h125.62l-6.29,57.49H1049.3l-4.77,43.61.1-.89c-.43,15.18,4.56,23.46,12.51,28,9.18,5.22,23,6.59,37.7,7.33h106.32l-6.38,58.33h-11.41l-120.45,0h-.54c-26.49-1.25-48.91-9.78-64.34-23.27C982,1363.49,973.43,1344.17,975.37,1322Z"/>
        <path class="cls-1" d="M1233,1400.82l1.25-11.4,4.5-41.09,1.25-11.4h124.69c15.64,0,27.48-2.61,35.38-7.83a24.23,24.23,0,0,0,7.71-7.92l0,0a29.89,29.89,0,0,0,3.69-12,22.34,22.34,0,0,0-5.56-18.15q-3.87-4.53-12.2-10.08a208.4,208.4,0,0,0-22.37-12.67h0l-52.76-26.56h0a150.55,150.55,0,0,1-26.69-16.75,91,91,0,0,1-18.77-20,70.45,70.45,0,0,1-10.34-23.51,78.32,78.32,0,0,1-1.42-26.57,87.55,87.55,0,0,1,11.94-36.19,90.31,90.31,0,0,1,26.82-27.9,120.4,120.4,0,0,1,37.81-16.92,180.32,180.32,0,0,1,45.73-5.42h107.3l-7,63.67H1362a50.49,50.49,0,0,0-14,1.77,31.18,31.18,0,0,0-9.87,4.74,19.44,19.44,0,0,0-8.51,14.7,19.49,19.49,0,0,0,.66,8,19.77,19.77,0,0,0,4.22,7.14q3.57,4,13.26,10.12,10.32,6.48,27.91,15.39h0l45.88,23h0a157.38,157.38,0,0,1,27.5,17.33,92.45,92.45,0,0,1,19.3,20.56,71.9,71.9,0,0,1,10.54,24.36,83.56,83.56,0,0,1,1.38,27.78,99.52,99.52,0,0,1-12.6,39.58,94.76,94.76,0,0,1-28.19,30.22,125.23,125.23,0,0,1-40.43,18.12q-22.36,5.81-50,5.81Z"/>
        <path class="cls-1" d="M1516.46,1322l0-.22,18.82-172.11,0-.22c2.92-22.22,15.7-41.55,34.83-55.6,18.38-13.5,42.67-22,69.44-23.28h.53l120.45,0H1772l-6.38,58.33H1659.28c-14.82.74-29,2.11-39.3,7.33-8.94,4.51-15.74,12.8-18.63,28l-5.92,54.13-3.8,34.67-6,55,.1-.89c-.43,15.18,4.55,23.46,12.5,28,9.19,5.22,23,6.59,37.7,7.33h106.32l-6.38,58.33h-11.4l-120.45,0h-.54c-26.49-1.25-48.91-9.78-64.34-23.27C1523.07,1363.49,1514.52,1344.17,1516.46,1322Z"/>
      </g>
    </g>
  </g>
</svg>
