<svg xmlns="http://www.w3.org/2000/svg" viewBox="0 0 297.94 257.83">
  <defs>
    <style>
      .cls-1, .cls-2 {
        fill: #6c757d;
      }

      .cls-2 {
        fill-rule: evenodd;
      }
    </style>
  </defs>
  <title>Asset 9</title>
  <g id="Layer_2" data-name="Layer 2">
    <g id="Layer_1-2" data-name="Layer 1">
      <g>
        <g>
          <path class="cls-1" d="M77.31,170.83A5.79,5.79,0,0,0,75.12,166a27.19,27.19,0,0,0-7.69-3.57,74.24,74.24,0,0,1-9-3.57q-11.36-5.58-11.36-15.34A13.74,13.74,0,0,1,49.91,135a18.4,18.4,0,0,1,8-5.78,31.11,31.11,0,0,1,11.64-2.07,27.24,27.24,0,0,1,11.3,2.25,17.93,17.93,0,0,1,7.77,6.4,16.79,16.79,0,0,1,2.77,9.5H77.35a7.06,7.06,0,0,0-2.19-5.54,8.53,8.53,0,0,0-5.92-2,9.61,9.61,0,0,0-6,1.67,4.9,4.9,0,0,0,.22,8.31q2.4,1.82,8.47,3.77a51.72,51.72,0,0,1,10,4.2q9.48,5.45,9.48,15.05a14.28,14.28,0,0,1-5.78,12q-5.79,4.38-15.86,4.38a31.41,31.41,0,0,1-12.86-2.55,19.37,19.37,0,0,1-8.68-7,18.17,18.17,0,0,1-2.91-10.21H59.44q0,4.7,2.43,6.92t7.89,2.23a9,9,0,0,0,5.52-1.51A5,5,0,0,0,77.31,170.83Z"/>
          <path class="cls-1" d="M110.79,142.93l.44,5.1a14.92,14.92,0,0,1,12.4-5.9q8.24,0,11.12,6.54,4.42-6.54,12.77-6.54,13.2,0,13.57,16v28.26H147.52V159a8.29,8.29,0,0,0-1.13-4.86c-.75-1-2.11-1.53-4.09-1.53a6.41,6.41,0,0,0-6,3.58l0,.56v29.66H122.79V159a8.73,8.73,0,0,0-1.08-4.94c-.73-1-2.1-1.53-4.14-1.53a6.5,6.5,0,0,0-5.94,3.58v30.22H98.1V142.93Z"/>
          <path class="cls-1" d="M193.28,186.36a15.14,15.14,0,0,1-1.28-3.89q-3.74,4.69-10.44,4.7a15.4,15.4,0,0,1-10.44-3.72,11.81,11.81,0,0,1-4.29-9.33q0-7.06,5.22-10.68t15.17-3.61h4.17v-2.3q0-6-5.17-6c-3.22,0-4.82,1.59-4.82,4.76H167.87a12.14,12.14,0,0,1,5.36-10.22q5.36-3.93,13.67-3.93T200,146.18q4.83,4,4.94,11.12v19.23c.06,4,.67,7,1.85,9.15v.68Zm-8.47-8.83a7.6,7.6,0,0,0,4.2-1.08,6.74,6.74,0,0,0,2.38-2.45v-6.94h-3.93q-7.07,0-7.07,6.34a3.87,3.87,0,0,0,1.25,3A4.52,4.52,0,0,0,184.81,177.53Z"/>
          <path class="cls-1" d="M238.72,155.17l-4.45-.32q-6.39,0-8.19,4v27.49H212.55V142.93h12.68l.45,5.58q3.4-6.39,9.51-6.38a13.19,13.19,0,0,1,3.77.48Z"/>
          <path class="cls-1" d="M261.36,132.13v10.8h7.15v9.39h-7.15v19.87a5.09,5.09,0,0,0,.89,3.42c.59.64,1.75,1,3.49,1a19.87,19.87,0,0,0,3.37-.24V186a24.84,24.84,0,0,1-7.63,1.17q-7,0-10.31-3.29t-3.34-10V152.32H242.3v-9.39h5.53v-10.8Z"/>
          <path class="cls-1" d="M48.93,221.34a21.25,21.25,0,0,1-3.29,10.78,19.76,19.76,0,0,1-8.45,7.24,28.64,28.64,0,0,1-12.42,2.57q-11.52,0-18.15-7.5T0,213.23v-2.89a35.39,35.39,0,0,1,3-15,22.59,22.59,0,0,1,8.61-10,24,24,0,0,1,13-3.51q10.63,0,17.1,5.6t7.34,15.43H35c-.1-3.56-1-6.11-2.68-7.66s-4.26-2.33-7.71-2.33-6.08,1.31-7.71,3.93-2.49,6.81-2.57,12.57v4.13q0,9.36,2.35,13.37t8.09,4q4.86,0,7.42-2.28t2.73-7.27Z"/>
          <path class="cls-1" d="M79.44,241.13a15.14,15.14,0,0,1-1.28-3.89q-3.73,4.69-10.44,4.69a15.46,15.46,0,0,1-10.44-3.71A11.83,11.83,0,0,1,53,228.89q0-7.06,5.22-10.68t15.17-3.61h4.18v-2.3q0-6-5.18-6c-3.21,0-4.82,1.58-4.82,4.76H54a12.14,12.14,0,0,1,5.36-10.23q5.36-3.93,13.67-3.93T86.19,201Q91,205,91.12,212.07v19.22c.06,4,.67,7,1.85,9.16v.68ZM71,232.3a7.49,7.49,0,0,0,4.2-1.09,6.83,6.83,0,0,0,2.39-2.44v-7H73.62q-7.07,0-7.06,6.34a3.86,3.86,0,0,0,1.24,3A4.48,4.48,0,0,0,71,232.3Z"/>
          <path class="cls-1" d="M111.4,197.7l.44,5.09a14.94,14.94,0,0,1,12.4-5.9q8.24,0,11.12,6.55,4.42-6.56,12.77-6.55,13.2,0,13.57,16v28.26H148.13V213.71a8.29,8.29,0,0,0-1.13-4.86c-.75-1-2.11-1.52-4.09-1.52a6.4,6.4,0,0,0-6,3.57l0,.56v29.67H123.4V213.79a8.75,8.75,0,0,0-1.08-4.94c-.73-1-2.11-1.52-4.14-1.52a6.48,6.48,0,0,0-5.94,3.57v30.23H98.71V197.7Z"/>
          <path class="cls-1" d="M209.75,219.73q0,10.13-4.56,16.16a14.6,14.6,0,0,1-12.3,6,12.55,12.55,0,0,1-9.84-4.37v20.27H169.52V197.7h12.65l.4,4a12.54,12.54,0,0,1,10.24-4.82q8,0,12.48,5.92t4.46,16.28Zm-13.53-.84q0-11.56-6.75-11.56-4.82,0-6.42,3.45v17.1q1.77,3.62,6.5,3.62,6.47,0,6.67-11.16Z"/>
          <path class="cls-1" d="M241.58,236.43a13.93,13.93,0,0,1-11.6,5.5q-7.14,0-10.82-4.15t-3.67-11.94V197.7H229v28.22q0,5.58,5.41,5.58c3.11,0,5.32-1.12,6.63-3.34V197.7h13.61v43.43H242Z"/>
          <path class="cls-1" d="M284.81,228.93a3.12,3.12,0,0,0-1.8-2.77,27.34,27.34,0,0,0-6.87-2.17,31.34,31.34,0,0,1-8.35-3,14,14,0,0,1-5-4.44,10.52,10.52,0,0,1-1.73-6,12,12,0,0,1,4.94-9.85q4.93-3.89,12.92-3.88,8.59,0,13.81,3.9A12.15,12.15,0,0,1,297.94,211H284.37q0-5.22-5.5-5.22A5.44,5.44,0,0,0,275.3,207a3.68,3.68,0,0,0-1.45,2.95,3.37,3.37,0,0,0,1.77,2.93,16.89,16.89,0,0,0,5.64,1.85,48.83,48.83,0,0,1,6.81,1.72q9.8,3.38,9.79,12.08a11.37,11.37,0,0,1-5.28,9.68q-5.28,3.74-13.67,3.73a23.7,23.7,0,0,1-10-2,16.72,16.72,0,0,1-6.83-5.46,12.42,12.42,0,0,1-2.45-7.27h12.65a5.22,5.22,0,0,0,2,4.4,8.26,8.26,0,0,0,4.93,1.38,6.5,6.5,0,0,0,4.16-1.12A3.61,3.61,0,0,0,284.81,228.93Z"/>
        </g>
        <g id="Layer_1-2-2" data-name="Layer 1-2">
          <g>
            <path class="cls-2" d="M173.86,9.93A13.92,13.92,0,1,1,160,23.84h0A13.91,13.91,0,0,1,173.86,9.93Z"/>
            <path class="cls-2" d="M204.34,94.84c-8-22.57-24.42-38.21-40.87-53.9C150.43,28.49,137.36,16,128.08,0c3.19,36.47,27.11,54.61,49.23,71.37C187.29,78.94,196.93,86.24,204.34,94.84Z"/>
            <path class="cls-2" d="M109.47,93A52.32,52.32,0,0,1,123.54,8.12l.3,1.65.06.29c.09.49.19,1,.29,1.45,0,.16.07.32.1.47.1.46.21.92.31,1.38,0,.15.07.3.11.45l.33,1.34c0,.15.09.31.12.46.12.43.23.86.35,1.28l.14.47c.1.36.21.73.32,1.08.06.19.12.38.17.57.13.39.25.78.38,1.17,0,.14.09.28.13.41.15.42.29.84.43,1.25l.16.45c.16.42.32.84.47,1.25l.14.36.48,1.22c.07.15.12.3.19.45l.45,1.07.18.42c.15.33.3.67.46,1,.06.13.11.27.18.4q1,2.09,2,4.1l.26.48.52,1,.29.49c.16.3.33.58.5.87l.26.46.55.9.31.5.55.86.3.48c.2.3.4.6.59.9l.36.51.51.75.47.67.27.37c.24.34.48.67.73,1l.24.33.7.92.33.44L140,45c.19.25.39.49.58.73l.44.55.51.62c.18.2.35.41.52.61s.33.4.5.59.39.46.59.68.22.25.32.38c.25.28.51.56.76.85l.37.4.77.85.28.29,1,1,.17.18.56.57.2.21,1,1,.14.14,1,1,.21.2c.32.31.65.63,1,.94l.2.19.54.51C136.26,67.74,121.16,78.21,109.47,93Z"/>
            <path class="cls-2" d="M172.69,74.75q7.65,6,15.32,12a52.3,52.3,0,0,1-64.75,15.92c5.45-3.17,11.26-6.14,17.19-9.16C151.3,87.93,162.51,82.2,172.69,74.75Z"/>
            <path class="cls-2" d="M185.7,55.82a80.07,80.07,0,0,0,16.51-32.69c-7.55,9.19-16.36,16.7-25.66,23.53C179.66,49.67,182.73,52.71,185.7,55.82Z"/>
            <path class="cls-2" d="M104.9,109.08c9.37-8,21.08-13.94,33.23-20.15,10.2-5.21,20.72-10.59,30.34-17.47-4.36-3.33-8.73-6.75-12.94-10.41C136,74,116.81,87.23,104.9,109.08Z"/>
          </g>
        </g>
      </g>
    </g>
  </g>
</svg>
