<svg xmlns="http://www.w3.org/2000/svg" viewBox="0 0 342 342">
  <defs>
    <style>
      .cls-1 {
        fill: #d32b3b;
      }

      .cls-2 {
        fill: #4d9747;
      }

      .cls-3 {
        fill: #edbb26;
      }

      .cls-4 {
        fill: #086594;
      }

      .cls-5 {
        fill: #fff;
      }
    </style>
  </defs>
  <title>icone-mostrar-categorias</title>
  <g id="Layer_2" data-name="Layer 2">
    <g id="Layer_1-2" data-name="Layer 1">
      <g>
        <g>
          <path class="cls-1" d="M171,171H0V25.43A25.44,25.44,0,0,1,25.43,0H171Z"/>
          <path class="cls-2" d="M342,171H171V0H316.57A25.44,25.44,0,0,1,342,25.43Z"/>
          <path class="cls-3" d="M171,342H25.43A25.44,25.44,0,0,1,0,316.57V171H171Z"/>
          <path class="cls-4" d="M316.57,342H171V171H342V316.57A25.44,25.44,0,0,1,316.57,342Z"/>
        </g>
        <path class="cls-5" d="M298.72,164.21c-24.31-47.43-72.43-79.52-127.53-79.52S68,116.8,43.65,164.21a14.57,14.57,0,0,0,0,13.09c24.31,47.42,72.44,79.51,127.54,79.51s103.24-32.11,127.53-79.52A14.49,14.49,0,0,0,298.72,164.21ZM171.19,235.3a64.52,64.52,0,1,1,.06,0Zm0-107.58a42.78,42.78,0,0,0-11.35,1.7,21.45,21.45,0,0,1-30,30,42.93,42.93,0,1,0,41.33-31.69Z"/>
      </g>
    </g>
  </g>
</svg>
