<svg xmlns="http://www.w3.org/2000/svg" viewBox="0 0 342 342">
  <defs>
    <style>
      .cls-1 {
        fill: #00c277;
      }

      .cls-2, .cls-3 {
        fill: #fff;
      }

      .cls-3 {
        fill-rule: evenodd;
      }
    </style>
  </defs>
  <title>icone-logotipo_1</title>
  <g id="Layer_2" data-name="Layer 2">
    <g id="Layer_1-2" data-name="Layer 1">
      <g>
        <path class="cls-1" d="M316.75,0H25.25A25.26,25.26,0,0,0,0,25.25v291.5A25.26,25.26,0,0,0,25.25,342h291.5A25.26,25.26,0,0,0,342,316.75V25.25A25.26,25.26,0,0,0,316.75,0Z"/>
        <g>
          <g>
            <path class="cls-2" d="M99.34,212.91a5.77,5.77,0,0,0-2.19-4.81,27.43,27.43,0,0,0-7.69-3.58,74.24,74.24,0,0,1-9-3.57q-11.35-5.58-11.36-15.33a13.71,13.71,0,0,1,2.83-8.57,18.24,18.24,0,0,1,8-5.78,31.11,31.11,0,0,1,11.64-2.07,27.24,27.24,0,0,1,11.3,2.25,17.93,17.93,0,0,1,7.77,6.4,16.76,16.76,0,0,1,2.77,9.49H99.38a7.08,7.08,0,0,0-2.19-5.54,8.53,8.53,0,0,0-5.92-2,9.61,9.61,0,0,0-6,1.66,4.9,4.9,0,0,0,.22,8.31q2.4,1.83,8.47,3.78a51.13,51.13,0,0,1,10,4.19q9.48,5.46,9.48,15.05a14.29,14.29,0,0,1-5.78,12q-5.79,4.37-15.86,4.37a31.49,31.49,0,0,1-12.87-2.55,19.37,19.37,0,0,1-8.67-7,18.21,18.21,0,0,1-2.91-10.22H81.47q0,4.69,2.43,6.93c1.62,1.48,4.25,2.23,7.89,2.23a9.09,9.09,0,0,0,5.52-1.51A5,5,0,0,0,99.34,212.91Z"/>
            <path class="cls-2" d="M132.82,185l.44,5.09a14.94,14.94,0,0,1,12.4-5.9q8.24,0,11.12,6.55,4.42-6.56,12.77-6.55,13.2,0,13.57,16v28.26H169.55V201a8.29,8.29,0,0,0-1.13-4.86c-.75-1-2.11-1.52-4.09-1.52a6.4,6.4,0,0,0-6,3.57l0,.56v29.67H144.82V201.11a8.75,8.75,0,0,0-1.08-4.94c-.73-1-2.11-1.52-4.14-1.52a6.49,6.49,0,0,0-5.94,3.57v30.23H120.13V185Z"/>
            <path class="cls-2" d="M215.31,228.45a15.14,15.14,0,0,1-1.28-3.89q-3.74,4.69-10.44,4.69a15.4,15.4,0,0,1-10.44-3.71,11.83,11.83,0,0,1-4.29-9.33q0-7.07,5.21-10.68t15.18-3.61h4.17v-2.3q0-6-5.17-6c-3.22,0-4.82,1.58-4.82,4.76H189.9a12.14,12.14,0,0,1,5.36-10.23q5.36-3.93,13.67-3.93t13.12,4.06q4.83,4,4.94,11.12v19.22c.06,4,.67,7,1.85,9.16v.68Zm-8.47-8.83a7.52,7.52,0,0,0,4.2-1.09,6.72,6.72,0,0,0,2.38-2.44v-7h-3.93q-7.06,0-7.07,6.34a3.87,3.87,0,0,0,1.25,3A4.48,4.48,0,0,0,206.84,219.62Z"/>
            <path class="cls-2" d="M260.75,197.26l-4.45-.32q-6.39,0-8.19,4v27.5H234.58V185h12.68l.45,5.58q3.4-6.39,9.51-6.39a13.23,13.23,0,0,1,3.77.48Z"/>
            <path class="cls-2" d="M283.39,174.22V185h7.15v9.39h-7.15v19.87a5.06,5.06,0,0,0,.89,3.41c.58.64,1.75,1,3.49,1a19.76,19.76,0,0,0,3.37-.25v9.68a25.14,25.14,0,0,1-7.63,1.16q-7,0-10.31-3.29c-2.22-2.19-3.34-5.53-3.34-10V194.41h-5.54V185h5.54v-10.8Z"/>
            <path class="cls-2" d="M71,263.42a21.22,21.22,0,0,1-3.29,10.78,19.84,19.84,0,0,1-8.45,7.25A28.78,28.78,0,0,1,46.8,284q-11.52,0-18.15-7.51T22,255.32v-2.89a35.47,35.47,0,0,1,3-15,22.62,22.62,0,0,1,8.61-9.95,24,24,0,0,1,13-3.52q10.63,0,17.1,5.6T71.08,245H57q-.15-5.34-2.69-7.67T46.64,235q-5.26,0-7.71,3.94t-2.57,12.56v4.14q0,9.34,2.35,13.36t8.09,4q4.86,0,7.42-2.29c1.72-1.52,2.63-3.95,2.73-7.27Z"/>
            <path class="cls-2" d="M101.47,283.22a15.37,15.37,0,0,1-1.28-3.9Q96.46,284,89.75,284a15.42,15.42,0,0,1-10.44-3.72A11.81,11.81,0,0,1,75,271q0-7.07,5.22-10.68t15.17-3.61h4.18v-2.3q0-6-5.18-6-4.81,0-4.82,4.76H76.06a12.14,12.14,0,0,1,5.36-10.22Q86.78,239,95.09,239T108.22,243q4.82,4.07,4.93,11.12v19.23c.06,4,.67,7,1.85,9.15v.69ZM93,274.38a7.57,7.57,0,0,0,4.2-1.08,6.85,6.85,0,0,0,2.39-2.45v-6.94H95.65q-7.07,0-7.06,6.34a3.86,3.86,0,0,0,1.24,3A4.52,4.52,0,0,0,93,274.38Z"/>
            <path class="cls-2" d="M133.43,239.78l.44,5.1a14.92,14.92,0,0,1,12.4-5.9q8.23,0,11.12,6.54,4.43-6.54,12.77-6.54,13.2,0,13.57,16v28.27H170.16V255.8a8.29,8.29,0,0,0-1.13-4.86c-.75-1-2.11-1.53-4.09-1.53a6.41,6.41,0,0,0-6,3.58l0,.56v29.67H145.43V255.88a8.73,8.73,0,0,0-1.08-4.94q-1.09-1.53-4.14-1.53a6.49,6.49,0,0,0-5.94,3.58v30.23H120.74V239.78Z"/>
            <path class="cls-2" d="M231.78,261.82q0,10.11-4.56,16.16a14.63,14.63,0,0,1-12.3,6,12.52,12.52,0,0,1-9.84-4.38v20.27H191.55V239.78H204.2l.4,4A12.53,12.53,0,0,1,214.84,239q8,0,12.48,5.92t4.46,16.28ZM218.25,261q0-11.56-6.75-11.57c-3.21,0-5.35,1.16-6.42,3.46V270q1.77,3.61,6.5,3.61,6.46,0,6.67-11.16Z"/>
            <path class="cls-2" d="M263.61,278.52A14,14,0,0,1,252,284q-7.15,0-10.82-4.16t-3.67-11.94V239.78H251V268q0,5.58,5.42,5.58,4.67,0,6.63-3.33V239.78H276.7v43.44H264Z"/>
            <path class="cls-2" d="M306.84,271a3.13,3.13,0,0,0-1.8-2.77,27.92,27.92,0,0,0-6.87-2.17,31.34,31.34,0,0,1-8.35-2.95,13.9,13.9,0,0,1-5-4.43,10.54,10.54,0,0,1-1.73-6,12,12,0,0,1,4.94-9.86Q293,239,300.94,239q8.6,0,13.81,3.89A12.18,12.18,0,0,1,320,253.11H306.4q0-5.22-5.5-5.22a5.43,5.43,0,0,0-3.57,1.18,3.69,3.69,0,0,0-1.45,3,3.35,3.35,0,0,0,1.77,2.93,16.67,16.67,0,0,0,5.64,1.85,48.75,48.75,0,0,1,6.81,1.73q9.79,3.38,9.79,12.08a11.36,11.36,0,0,1-5.28,9.67Q309.33,284,300.94,284a23.55,23.55,0,0,1-9.95-2,16.72,16.72,0,0,1-6.83-5.46,12.37,12.37,0,0,1-2.45-7.26h12.65a5.2,5.2,0,0,0,2,4.39,8.26,8.26,0,0,0,4.93,1.39,6.49,6.49,0,0,0,4.16-1.13A3.59,3.59,0,0,0,306.84,271Z"/>
          </g>
          <g id="Layer_1-2-2" data-name="Layer 1-2">
            <g>
              <path class="cls-3" d="M195.89,52A13.92,13.92,0,1,1,182,65.93h0A13.92,13.92,0,0,1,195.89,52Z"/>
              <path class="cls-3" d="M226.37,136.93C218.34,114.36,202,98.72,185.5,83c-13-12.44-26.11-24.92-35.39-40.93,3.19,36.46,27.11,54.6,49.23,71.36C209.32,121,219,128.33,226.37,136.93Z"/>
              <path class="cls-3" d="M131.5,135a52.31,52.31,0,0,1,14.07-84.82l.3,1.64.06.3c.09.48.19,1,.29,1.44,0,.16.07.32.1.48.1.46.21.92.31,1.37,0,.15.07.31.11.46l.33,1.33.12.47c.11.43.23.85.35,1.28.05.15.09.31.14.47.1.36.21.72.32,1.08.06.19.12.37.17.56.13.39.25.79.38,1.18,0,.13.09.27.13.41.14.42.29.83.43,1.24l.16.45c.16.42.32.84.47,1.26l.14.35.48,1.22c.07.15.12.3.19.45l.45,1.07.18.42c.15.34.3.68.46,1,.06.14.11.27.18.41q1,2.07,2,4.1l.26.48.52.94.29.5c.16.29.33.58.5.87l.26.45.55.9.31.5c.18.29.36.58.55.87l.3.47c.2.3.4.6.59.9l.36.52.51.75.47.67.27.37c.24.33.48.67.73,1l.24.32c.23.32.47.62.7.93l.33.43.44.57c.19.24.39.48.58.73l.44.54.51.62.52.62.5.59c.2.22.39.45.59.68l.32.37c.25.29.51.57.76.85l.37.41.77.84.28.3,1,1,.17.19.56.56.2.21,1,1,.14.13,1,1,.21.2c.32.32.65.63,1,.94l.2.19.54.52C158.29,109.83,143.19,120.3,131.5,135Z"/>
              <path class="cls-3" d="M194.72,116.83l15.32,12a52.29,52.29,0,0,1-64.75,15.93c5.45-3.17,11.26-6.14,17.19-9.17C173.33,130,184.54,124.29,194.72,116.83Z"/>
              <path class="cls-3" d="M207.73,97.91a80.13,80.13,0,0,0,16.51-32.69c-7.55,9.18-16.36,16.69-25.66,23.53C201.69,91.76,204.76,94.8,207.73,97.91Z"/>
              <path class="cls-3" d="M126.93,151.17c9.37-8,21.08-13.95,33.23-20.16,10.2-5.21,20.72-10.59,30.34-17.46-4.36-3.33-8.73-6.75-12.94-10.41C158.05,116.1,138.84,129.31,126.93,151.17Z"/>
            </g>
          </g>
        </g>
      </g>
    </g>
  </g>
</svg>
