<svg xmlns="http://www.w3.org/2000/svg" viewBox="0 0 342 342">
  <defs>
    <style>
      .cls-1 {
        fill: #d32b3b;
      }

      .cls-2 {
        fill: #4d9747;
      }

      .cls-3 {
        fill: #edbb26;
      }

      .cls-4 {
        fill: #086594;
      }

      .cls-5 {
        fill: #fff;
      }
    </style>
  </defs>
  <title>icone-esconder-categorias</title>
  <g id="Layer_2" data-name="Layer 2">
    <g id="Layer_1-2" data-name="Layer 1">
      <g>
        <g>
          <path class="cls-1" d="M171,171H0V25.43A25.44,25.44,0,0,1,25.43,0H171Z"/>
          <path class="cls-2" d="M342,171H171V0H316.57A25.44,25.44,0,0,1,342,25.43Z"/>
          <path class="cls-3" d="M171,342H25.43A25.44,25.44,0,0,1,0,316.57V171H171Z"/>
          <path class="cls-4" d="M316.57,342H171V171H342V316.57A25.44,25.44,0,0,1,316.57,342Z"/>
        </g>
        <path class="cls-5" d="M171,235.55a64.32,64.32,0,0,1-64.06-59.67l-47-36.34a149.92,149.92,0,0,0-16.46,24.92,14.55,14.55,0,0,0,0,13.08C67.77,225,115.9,257.06,171,257.06a139,139,0,0,0,34.91-4.69l-23.26-18A65.09,65.09,0,0,1,171,235.55Zm140.67,26-49.56-38.3a148.25,148.25,0,0,0,36.42-45.75,14.49,14.49,0,0,0,0-13.08C274.22,117,226.1,84.94,171,84.94a138.19,138.19,0,0,0-66,16.9l-57-44.08A7.18,7.18,0,0,0,37.87,59h0l-8.8,11.33a7.17,7.17,0,0,0,1.26,10.06L294.06,284.24A7.17,7.17,0,0,0,304.12,283h0l8.8-11.33A7.17,7.17,0,0,0,311.67,261.59Zm-82.36-63.65L211.7,184.32a42.47,42.47,0,0,0-52-54.65,19.21,19.21,0,0,1,3.49,17.12l-33-25.5A63.82,63.82,0,0,1,171,106.45a64.52,64.52,0,0,1,64.55,64.48V171a63,63,0,0,1-6.24,26.94Z"/>
      </g>
    </g>
  </g>
</svg>
