<svg xmlns="http://www.w3.org/2000/svg" viewBox="0 0 342 342">
  <defs>
    <style>
      .cls-1 {
        fill: #6c757d;
      }

      .cls-2 {
        fill: #fff;
      }
    </style>
  </defs>
  <title>icone-inicio_1</title>
  <g id="Layer_2" data-name="Layer 2">
    <g id="Layer_1-2" data-name="Layer 1">
      <path class="cls-1" d="M316.59,0H25.41A25.41,25.41,0,0,0,0,25.41V316.59A25.41,25.41,0,0,0,25.41,342H316.59A25.41,25.41,0,0,0,342,316.59V25.41A25.41,25.41,0,0,0,316.59,0Z"/>
      <path class="cls-2" d="M168.07,129.63,97.3,187.92v62.91a6.14,6.14,0,0,0,6.14,6.15l43-.12a6.13,6.13,0,0,0,6.11-6.14V214a6.14,6.14,0,0,1,6.15-6.14h24.56a6.13,6.13,0,0,1,6.14,6.14V250.7a6.15,6.15,0,0,0,6.13,6.16h0l43,.12a6.14,6.14,0,0,0,6.14-6.15v-63l-70.76-58.25a4.68,4.68,0,0,0-5.87,0Zm111.79,39.62L247.77,142.8V89.63a4.6,4.6,0,0,0-4.61-4.6H221.67a4.6,4.6,0,0,0-4.61,4.6V117.5L182.69,89.23a18.41,18.41,0,0,0-23.41,0l-97.17,80a4.6,4.6,0,0,0-.61,6.49h0l9.79,11.9a4.6,4.6,0,0,0,6.48.63h0l90.29-74.36a4.65,4.65,0,0,1,5.87,0l90.3,74.36a4.59,4.59,0,0,0,6.48-.61h0l9.79-11.9a4.6,4.6,0,0,0-.63-6.48l0,0Z"/>
    </g>
  </g>
</svg>
