<svg xmlns="http://www.w3.org/2000/svg" viewBox="0 0 684.08 342">
  <defs>
    <style>
      .cls-1 {
        fill: #00c277;
      }

      .cls-2, .cls-3 {
        fill: #fff;
      }

      .cls-3 {
        fill-rule: evenodd;
      }
    </style>
  </defs>
  <title>Asset 7</title>
  <g id="Layer_2" data-name="Layer 2">
    <g id="Layer_1-2" data-name="Layer 1">
      <g>
        <path class="cls-1" d="M0,25.26V316.75A25.25,25.25,0,0,0,25.25,342H342V0H25.25A25.26,25.26,0,0,0,0,25.26Z"/>
        <path class="cls-1" d="M658.83,0H342.08V342H658.83a25.25,25.25,0,0,0,25.25-25.25V25.26A25.26,25.26,0,0,0,658.83,0Z"/>
      </g>
      <g>
        <g>
          <path class="cls-2" d="M353.58,149.36a5.79,5.79,0,0,0-2.19-4.82A27.19,27.19,0,0,0,343.7,141a73.58,73.58,0,0,1-9-3.57q-11.35-5.58-11.36-15.34a13.74,13.74,0,0,1,2.83-8.57,18.32,18.32,0,0,1,8-5.78,31.11,31.11,0,0,1,11.64-2.07,27.24,27.24,0,0,1,11.3,2.25,17.93,17.93,0,0,1,7.77,6.4,16.79,16.79,0,0,1,2.77,9.5H353.62a7,7,0,0,0-2.19-5.54,8.53,8.53,0,0,0-5.92-2,9.59,9.59,0,0,0-6,1.67,4.9,4.9,0,0,0,.22,8.31q2.4,1.81,8.47,3.77a52.39,52.39,0,0,1,9.95,4.19q9.48,5.46,9.48,15.06a14.28,14.28,0,0,1-5.78,12Q356.1,165.7,346,165.7a31.46,31.46,0,0,1-12.87-2.55,19.39,19.39,0,0,1-8.67-7A18.2,18.2,0,0,1,321.58,146h14.13q0,4.7,2.43,6.92T346,155.1a9,9,0,0,0,5.52-1.51A5,5,0,0,0,353.58,149.36Z"/>
          <path class="cls-2" d="M387.06,121.46l.44,5.1a14.9,14.9,0,0,1,12.4-5.9q8.24,0,11.12,6.54,4.41-6.54,12.77-6.54,13.2,0,13.56,16v28.26H423.79V137.48a8.27,8.27,0,0,0-1.13-4.86c-.75-1-2.11-1.53-4.09-1.53a6.4,6.4,0,0,0-6,3.58l0,.56v29.66H399.06V137.56a8.64,8.64,0,0,0-1.09-4.94c-.72-1-2.1-1.53-4.13-1.53a6.47,6.47,0,0,0-5.94,3.58v30.22H374.37V121.46Z"/>
          <path class="cls-2" d="M469.55,164.89a15.49,15.49,0,0,1-1.29-3.89q-3.72,4.69-10.43,4.7A15.39,15.39,0,0,1,447.39,162a11.81,11.81,0,0,1-4.29-9.33q0-7.07,5.21-10.68t15.18-3.61h4.17v-2.3c0-4-1.72-6-5.18-6-3.21,0-4.81,1.58-4.81,4.76H444.14a12.12,12.12,0,0,1,5.36-10.22q5.36-3.93,13.67-3.93t13.12,4q4.81,4,4.94,11.12v19.23q.07,6,1.85,9.15v.68Zm-8.47-8.83a7.54,7.54,0,0,0,4.19-1.08,6.77,6.77,0,0,0,2.39-2.45v-6.95h-3.93q-7.07,0-7.07,6.35a3.89,3.89,0,0,0,1.25,3A4.5,4.5,0,0,0,461.08,156.06Z"/>
          <path class="cls-2" d="M515,133.7l-4.45-.32q-6.39,0-8.19,4v27.49H488.82V121.46H501.5l.44,5.58q3.42-6.39,9.52-6.38a13.23,13.23,0,0,1,3.77.48Z"/>
          <path class="cls-2" d="M537.63,110.66v10.8h7.15v9.39h-7.15v19.87a5.1,5.1,0,0,0,.88,3.41c.59.65,1.76,1,3.5,1a19.87,19.87,0,0,0,3.37-.24v9.67a24.89,24.89,0,0,1-7.63,1.17q-7,0-10.31-3.3t-3.34-10V130.85h-5.54v-9.39h5.54v-10.8Z"/>
          <path class="cls-2" d="M325.2,199.87a21.25,21.25,0,0,1-3.29,10.78,19.88,19.88,0,0,1-8.45,7.24A28.81,28.81,0,0,1,301,220.46q-11.52,0-18.15-7.51t-6.62-21.19v-2.89a35.39,35.39,0,0,1,3-15,22.59,22.59,0,0,1,8.61-10,24,24,0,0,1,13-3.51q10.64,0,17.1,5.6t7.34,15.43H311.27c-.1-3.56-1-6.11-2.69-7.67s-4.25-2.32-7.7-2.32-6.08,1.31-7.71,3.93-2.49,6.81-2.57,12.57V192q0,9.36,2.35,13.37t8.09,4c3.23,0,5.71-.76,7.42-2.29s2.63-3.94,2.73-7.26Z"/>
          <path class="cls-2" d="M355.71,219.66a15.1,15.1,0,0,1-1.28-3.9q-3.74,4.71-10.44,4.7a15.44,15.44,0,0,1-10.44-3.71,11.84,11.84,0,0,1-4.29-9.34q0-7.07,5.22-10.67t15.17-3.62h4.17v-2.29q0-6-5.17-6c-3.22,0-4.82,1.59-4.82,4.76H330.3a12.14,12.14,0,0,1,5.36-10.22q5.35-3.93,13.67-3.93t13.13,4.06q4.82,4.05,4.93,11.11v19.23c.06,4,.67,7,1.85,9.16v.68Zm-8.47-8.83a7.49,7.49,0,0,0,4.2-1.09,6.74,6.74,0,0,0,2.38-2.45v-6.94h-3.93q-7.06,0-7.06,6.34a3.86,3.86,0,0,0,1.24,3A4.48,4.48,0,0,0,347.24,210.83Z"/>
          <path class="cls-2" d="M387.66,176.22l.45,5.1a14.93,14.93,0,0,1,12.4-5.9q8.24,0,11.12,6.54,4.41-6.54,12.77-6.54,13.2,0,13.56,16v28.26H424.4V192.24a8.29,8.29,0,0,0-1.13-4.86c-.75-1-2.11-1.52-4.09-1.52a6.4,6.4,0,0,0-6,3.57l0,.56v29.67H399.67V192.32a8.66,8.66,0,0,0-1.09-4.94c-.72-1-2.1-1.52-4.13-1.52a6.48,6.48,0,0,0-5.94,3.57v30.23H375V176.22Z"/>
          <path class="cls-2" d="M486,198.26q0,10.13-4.56,16.16a14.6,14.6,0,0,1-12.3,6,12.55,12.55,0,0,1-9.84-4.37v20.27H445.79V176.22h12.65l.4,4a12.52,12.52,0,0,1,10.23-4.82q8,0,12.49,5.92T486,197.62Zm-13.53-.84q0-11.56-6.75-11.56-4.82,0-6.42,3.45v17.1q1.77,3.61,6.5,3.61,6.46,0,6.67-11.16Z"/>
          <path class="cls-2" d="M517.85,215a14,14,0,0,1-11.6,5.5q-7.15,0-10.82-4.15t-3.67-11.95V176.22h13.52v28.22q0,5.58,5.42,5.58,4.66,0,6.63-3.33V176.22h13.61v43.44H518.25Z"/>
          <path class="cls-2" d="M561.08,207.45a3.11,3.11,0,0,0-1.8-2.76,27.48,27.48,0,0,0-6.87-2.17,31.7,31.7,0,0,1-8.35-3,14.05,14.05,0,0,1-5-4.44,10.59,10.59,0,0,1-1.72-6,12,12,0,0,1,4.94-9.86q4.93-3.87,12.92-3.87,8.6,0,13.81,3.89a12.18,12.18,0,0,1,5.22,10.24H560.64q0-5.22-5.5-5.22a5.44,5.44,0,0,0-3.57,1.19,3.68,3.68,0,0,0-1.45,2.95,3.37,3.37,0,0,0,1.77,2.93,16.69,16.69,0,0,0,5.64,1.84,49.64,49.64,0,0,1,6.8,1.73q9.79,3.38,9.8,12.08a11.39,11.39,0,0,1-5.28,9.68q-5.28,3.74-13.67,3.73a23.55,23.55,0,0,1-9.95-2A16.5,16.5,0,0,1,538.4,213a12.37,12.37,0,0,1-2.45-7.26H548.6a5.19,5.19,0,0,0,2,4.39,8.19,8.19,0,0,0,4.93,1.39,6.58,6.58,0,0,0,4.16-1.12A3.61,3.61,0,0,0,561.08,207.45Z"/>
        </g>
        <g id="Layer_1-2-2" data-name="Layer 1-2">
          <g>
            <path class="cls-3" d="M203.69,118.85a16.27,16.27,0,1,1-16.27,16.27h0A16.27,16.27,0,0,1,203.69,118.85Z"/>
            <path class="cls-3" d="M239.32,218.11c-9.38-26.38-28.55-44.67-47.77-63C176.3,140.55,161,126,150.18,107.24c3.72,42.63,31.69,63.84,57.54,83.43C219.39,199.52,230.65,208.06,239.32,218.11Z"/>
            <path class="cls-3" d="M128.42,215.9a61.16,61.16,0,0,1,16.45-99.16c.11.64.23,1.29.35,1.92l.06.34c.11.57.23,1.14.35,1.7,0,.18.07.37.11.55.12.54.24,1.08.37,1.61,0,.18.08.35.13.53.12.52.25,1,.38,1.56,0,.18.1.36.14.54.13.51.27,1,.41,1.5.06.18.11.36.16.55.13.42.25.84.38,1.26.06.22.13.44.2.66.14.46.29.92.44,1.38.05.16.1.32.16.48.16.48.33,1,.5,1.45l.19.52c.18.5.36,1,.55,1.48l.16.41c.18.48.37.95.56,1.42.07.18.14.35.22.53.17.42.35.84.53,1.25.07.16.13.33.21.49.17.4.35.79.53,1.18.07.16.13.32.21.47.75,1.63,1.54,3.23,2.39,4.8l.3.56.61,1.1.33.59.59,1,.31.53c.21.36.43.71.64,1.06l.36.58.64,1,.36.55.69,1.06.41.6c.2.29.4.59.61.88l.55.78c.1.14.2.29.31.43l.85,1.17.28.38c.27.37.55.73.82,1.08l.39.51.51.66.68.85.52.64.59.73.61.72c.19.23.38.46.58.68l.69.8c.12.15.25.29.38.44l.88,1,.43.48.91,1,.32.35,1.13,1.19.2.21.64.66.24.24,1.14,1.16.17.16c.4.39.79.79,1.2,1.18l.24.23c.38.37.76.74,1.15,1.1l.24.22.63.6C159.74,186.44,142.09,198.67,128.42,215.9Z"/>
            <path class="cls-3" d="M202.32,194.62l17.91,14a61.12,61.12,0,0,1-75.69,18.62c6.37-3.7,13.17-7.18,20.09-10.72C177.31,210,190.42,203.33,202.32,194.62Z"/>
            <path class="cls-3" d="M217.53,172.5a93.67,93.67,0,0,0,19.3-38.22c-8.83,10.74-19.12,19.52-30,27.51C210.47,165.31,214.05,168.86,217.53,172.5Z"/>
            <path class="cls-3" d="M123.08,234.76c11-9.31,24.64-16.3,38.84-23.57,11.92-6.08,24.22-12.37,35.46-20.41-5.09-3.89-10.2-7.89-15.12-12.17C159.45,193.76,137,209.21,123.08,234.76Z"/>
          </g>
        </g>
      </g>
    </g>
  </g>
</svg>
